/* XPM */
static char *_a186eed515d4f6da953cfc910cc7aa8cWddT11gRqXf7GqP[] = {
/* columns rows colors chars-per-pixel */
"64 64 155 2 ",
"   c #020502",
".  c #050B04",
"X  c #071107",
"o  c #081307",
"O  c #0E1A06",
"+  c #091609",
"@  c #0D1D0B",
"#  c #111E06",
"$  c #0F220D",
"%  c #122307",
"&  c #152907",
"*  c #13250A",
"=  c #162A09",
"-  c #192D0A",
";  c #17330F",
":  c #1C340B",
">  c #1E390B",
",  c #132D11",
"<  c #163413",
"1  c #183713",
"2  c #1B3D13",
"3  c #213C0C",
"4  c #213611",
"5  c #243D13",
"6  c #283F15",
"7  c #1E4315",
"8  c #1F4816",
"9  c #1E4518",
"0  c #1F491A",
"q  c #24430C",
"w  c #27490D",
"e  c #2A4D0E",
"r  c #2C520F",
"t  c #214515",
"y  c #2A4216",
"u  c #224B16",
"i  c #2C4C13",
"p  c #244619",
"a  c #2A461B",
"s  c #214A19",
"d  c #20491A",
"f  c #274A19",
"g  c #234D18",
"h  c #224D1B",
"j  c #244C18",
"k  c #234E1C",
"l  c #284A1A",
"z  c #294C1B",
"x  c #2A4E1B",
"c  c #2A4C1C",
"v  c #314D1E",
"b  c #235016",
"n  c #255317",
"m  c #255417",
"M  c #2E5510",
"N  c #2C5717",
"B  c #2F5911",
"V  c #23501B",
"C  c #25511A",
"Z  c #265619",
"A  c #23501C",
"S  c #24531C",
"D  c #25551D",
"F  c #285018",
"G  c #295219",
"H  c #295518",
"J  c #29551B",
"K  c #2E561B",
"L  c #2A501C",
"P  c #2B541C",
"I  c #2D571E",
"U  c #27581B",
"Y  c #2E5B1A",
"T  c #2F5C19",
"R  c #28591C",
"E  c #2D5A1E",
"W  c #305514",
"Q  c #325C12",
"!  c #30561B",
"~  c #325C1D",
"^  c #356313",
"/  c #386714",
"(  c #376813",
")  c #3A6B14",
"_  c #336319",
"`  c #36631B",
"'  c #366519",
"]  c #39651C",
"[  c #376A1B",
"{  c #3C6B1C",
"}  c #3E7316",
"|  c #3E721D",
" . c #2C4E20",
".. c #324D22",
"X. c #2E5421",
"o. c #2E5B21",
"O. c #325522",
"+. c #395525",
"@. c #335C23",
"#. c #395C26",
"$. c #3A5629",
"%. c #3C5C29",
"&. c #356124",
"*. c #396226",
"=. c #3E6B23",
"-. c #356129",
";. c #3C6429",
":. c #3E692B",
">. c #3F7022",
",. c #407716",
"<. c #427B17",
"1. c #42751C",
"2. c #447D1A",
"3. c #415D2C",
"4. c #426C25",
"5. c #42642D",
"6. c #436A2D",
"7. c #486C2D",
"8. c #447523",
"9. c #487525",
"0. c #467B22",
"q. c #4A7D24",
"w. c #467329",
"e. c #4A742C",
"r. c #4C7B2A",
"t. c #466431",
"y. c #496532",
"u. c #466B31",
"i. c #4B6C34",
"p. c #4F6F38",
"a. c #516F39",
"s. c #4C7234",
"d. c #4F7A31",
"f. c #4F7138",
"g. c #517335",
"h. c #537C34",
"j. c #527439",
"k. c #59743F",
"l. c #557A39",
"z. c #597C3D",
"x. c #5E7D42",
"c. c #468319",
"v. c #488619",
"b. c #4A8A1A",
"n. c #4E921D",
"m. c #50941D",
"M. c #4C8324",
"N. c #4E8A23",
"B. c #4E812A",
"V. c #508428",
"C. c #54882E",
"Z. c #509120",
"A. c #548333",
"S. c #5C8042",
"D. c #628246",
/* pixels */
"  . + $ , < < 1 9 9 2 2 2 2 2 9 1 < 7 7 9 9 2 7 9 9 7 2 7 7 s k k s 9 s 9 s 7 9 h s s s h h h h 9 h h h 9 7 s 0 9 2 < , $ + .   ",
". + * < 2 1 9 V V 8 8 u 8 s s 8 7 2 9 s s 9 9 s 7 2 2 2 7 h s D D s s h s s s D S D D D D V D D S D D D h s C h h 0 0 2 < * + . ",
"+ * 1 9 9 2 8 V Z 8 7 8 8 2 2 2 7 2 2 7 t t t t j f 2 2 j H C H H C j u j u h R C Z C C C u Z U Z Z C Z C Z Z C V C C h 9 1 * + ",
"$ < 9 h s h V h Z 8 7 2 2 ; 2 2 7 2 2 2 2 t j j N j t 2 u u u j j u t C Z C n j u Z Z Z n h m Z n Z Z Z Z Z Z Z Z U D D A 9 < $ ",
", 7 h C h Z h u n 8 h 7 8 2 2 2 u h u 2 t t j H _ G t 2 t t u u u 2 2 u h u u t 7 n Z C n n h Z Z Z Z Z m n Z Z n Z h V D h 7 , ",
"1 s C Z Z Z b Z m u h 8 2 2 2 7 u j u 2 2 2 7 Y [ Y x p p j p j t t t f G G u h h t 7 t h n h n Z Z Z Z Z u h Z Z b u u Z Z s 1 ",
"2 h C V n n Z Z m n n u 7 8 t h t u t 7 t 2 f _ ' K L l l L x I L L l x K T G G C u u u h j n n n h b Z n b h h n h u u Z D h 2 ",
"9 V h V u u m n h h b h h n n j u j h j j p K ' ' I x l P I P I P x y p Y ! x x p j j C j j C j u t h n n Z m u Z n u u C Z h 2 ",
"9 D Z n b h h n h Z m n Z Z Z h Z H H H H I K { { ! a P P c P @.P x y a ~ ` x x y p j t u C j j u h u h n Z C h Z h t h C C C 7 ",
"s D Z Z m h b Z h m m n b C n t C R I I I @._ { { ~ c O.O.O.X.@.O.O. .P ] ] c I P x l y j C j t t u h n Z Z Z n Z b n n b Z C 9 ",
"h C h n n b Z Z n Z m m b n n u C H I I I ~ ] | { ] O.@.@.*.*.*.*.#.@.*.=.*.O.@.@.@.X.L x L p t t t t 7 u h b n n n Z Z C C h 7 ",
"h s h u n m m Z Z m m m Z C n C Z H I I o.I { | | { @.*.*.;.*.@.;.;.=.>.8.=.#.@.*.@.@.O.X.x y t t 2 1 2 2 2 u u t h b n h u 8 9 ",
"h C C h Z Z Z Z Z Z Z Z C u t j Z I I I @.@.{ 1.1.=.@.*.%.#.#.#.;.=.8.8.8.;.%.;.:.*.*.@.@.@.X.x p t 1 2 2 2 u u t 8 t n u 8 7 0 ",
"s h C u m Z Z Z Z Z Z Z Z Z n C H H I @.&.&.| 2.2.8.=.*.;.;.%.;.4.8.0.9.=.%.%.;.;.;.;.;.*.&.@.c x l 5 7 t 2 t u h 8 7 8 8 8 2 2 ",
"9 8 8 8 h u h u n n n Z Z Z H R H H @.@.&.&.1.2.2.0.4.;.6.7.6.6.9.q.0.w.6.%.%.%.%.5.6.6.%.@.@.@.@.P x x j t t h h 8 ; ; 2 2 2 7 ",
"9 2 7 h b u h 8 h h h u n Z H R R I @.@.&.@.| 2.2.0.8.6.5.7.6.8.0.q.9.e.e.7.7.7.5.u.6.6.;.;.#.;.@.O.@.I I j t j u 8 7 7 2 2 7 8 ",
"7 2 u Z Z n b h h 8 u h Z Z H H C I o.@.&.&.>.0.0.M.8.5.5.e.r.0.q.r.e.e.r.0.q.0.B.7.u.u.u.6.;.;.@.@.@.x L G f u u 7 2 7 2 2 7 9 ",
"9 h C Z n Z m m b u h h n Z Z j j I &.&.&.&.=.0.0.0.0.6.7.r.q.M.r.d.l.h.N.,.i ' W M.s.f.s.s.6.;.%.*.@.c X.o.x t j t 2 8 8 7 8 9 ",
"9 S C Z h n Z m n u 8 u h j H C j x I &.&.@.#.=.8.0.0.w.e.q.M.B.h.j.z.r.b.} 3 - - q 2.d.j.f.5.5.$.#.@.O.O.X.L j j t t h Z j 8 9 ",
"h C C Z h Z Z Z m h 8 7 8 u n Z j x I @.O.@.#.;.6.0.0.q.q.q.r.h.z.x.h.1.b.v.q - > & 4 1.A.j.y.5.5.%.O.O.O.O.I j f j j t u u s 7 ",
"s V h b b m Z Z b n t 8 8 h n Z H I I I O.@.#.;.5.w.r.q.r.r.z.S.x.h.2.} v.b.Q - : 3 - y q.A.j.p.i.5.$.O.O.@.@.x L H h t u s 8 2 ",
"h D C 8 8 n Z Z h n h u u j C Z R ~ I @.@.@.;.6.u.s.r.M.r.j.x.D.l.8.<.v.v.n.} : - : > > i 2.A.j.f.u.5.$.O.O.X.I o.I C j h s 7 2 ",
"h D C u 7 g n u u n h t h j C H I I @.@.@.#.6.6.u.f.d.B.A.k.x.z.8.<.v.v.<.b.v.3 - = : : 4 q 1.A.l.p.3.%.%.*.@.@.@.L j u u t 2 1 ",
"h V h u 8 n n u u h h u h u j H I @.@.@.*.#.;.5.u.i.e.q.h.x.z.9.2.v.v.v.} v.b.} 3 & % - : 3 3 { C.d.t.5.%.*.@.O.c x G j t u s 2 ",
"9 V C h h n h u t 8 b h u t t G I @.&.*.;.;.;.5.i.p.e.q.z.D.r.c.v.b.v.v.,.) c.v.) 3 % # = - 3 3 ' N.e.u.5.6.#.@.c l L H u u s 2 ",
"7 V C n h h b 8 h u u t t u t H @.@.@.;.:.6.5.3.i.f.q.V.h.e.<.v.b.b.v.v.c.^ } c.c.} 3 % O % : 3 > W N.s.6.:.%.@.X.x L H h C s 2 ",
"9 V C 8 7 u h u Z h h u t j H I I P O.#.6.6.5.y.j.h.q.M.r.2.v.b.b.b.b.v.c.^ Q } <.v.,.q & O % - 3 - ] M.7.;.;.;.O.x I H j C S 7 ",
"1 s h 7 7 8 b b h h j u u C I I P O.#.*.6.6.t.i.a.s.q.2.,.c.b.b.b.b.v.c.,.) e Q ( <.v.c.M - # & & > y 0.M.6.;.;.@.@.@.E C R H s ",
"2 u g t 8 t n h 2 8 u t t C I I X.O.@.;.5.t.y.a.j.e.2.2.c.v.b.b.b.v.<.,.) ^ r r M ^ } b.b.^ i > - % = G N.w.;.;.&.@.@.@.I R D s ",
"2 V C g 8 7 t h 7 u h j j G @.@.O...#.;.u.i.i.j.z.r.2.v.b.b.b.b.v.2.} ) / Q r r r r Q ) b.b.<.c.i w - > Q N.6.;.#.P x I R R S s ",
"7 s h n h u m n t C H R G I @.@.#.*.6.5.t.p.i.a.g.2.c.b.b.b.b.v.2.} ) ) Q M r r r r r r ^ 2.v.b.b.<.} / W M.6.*.*.O.P o.H R H h ",
"7 h Z n h u h h t j u G L P @.O.*.6.u.i.p.j.j.j.8.c.v.b.b.b.v.2.} ) ) ^ M r r r r r e w q W ) } 2.c.2.<.v.w.;.*.*.O.x I H R D k ",
"9 V C b h u u t t u f E o.I @.O.6.u.u.f.j.j.j.8.2.b.b.b.b.v.2.} ) ) ^ Q r r r r r r w 3 > 3 w w M q M 4.5.5.;.@.@.P L I H H H k ",
"2 s h h h 8 7 2 u C x o.@.@.#.%.6.5.y.f.j.l.9.2.v.b.b.b.v.<.} ) ) / Q r r r r r r e q > : : > : = : L 5.5.5.%.O.c P I G j j D s ",
"1 s h u u u t 2 t f j x O.@.*.:.5.t.i.j.j.e.<.v.b.b.b.v.<.} ) ) ^ B r r r r r r e q 3 > : : - & % y %.i.5.$.#.O.O.X.I j h j k 9 ",
"2 8 8 7 u 7 7 t t p p a a O.%.;.u.p.i.a.e.2.v.b.b.b.v.2.} ) ) ^ Q r r r r r r e w q 3 > : = = = y 5.y.u.5.%.%.@.O.P l j C C s 7 ",
"9 8 7 7 j u 7 t t x x c v #.%.3.y.f.i.7.,.c.b.b.b.v.2.,.) ) ^ Q r r r r r r e w q > > : = % % 4 ;.j.y.3.%.#.#.O.I P j C u u h 2 ",
"1 7 2 2 t h j G G x l c O.+.$.3.y.y.5.1.c.b.b.b.v.c.,.} ) ^ Q M r r r r r e w q 3 : : = % % 4 %.g.f.u.5.;.O.c O.L l t t t C C 1 ",
"1 2 u u 2 7 u R I I c v O.$.%.3.y.7.,.<.v.b.b.v.2.,.} ) ^ Q M M r r r r e w q 3 > : = % # : +.p.f.t.5.%.#.v x P L j 2 2 u C s 1 ",
"1 7 u 8 2 2 t x x O.O.O.O.%.3.t.7.1.2.v.b.b.v.2.,.} ) ^ Q M M r r r r e w q 3 > : - % % - +.i.p.y.3.%.#.O.c c P I j 2 7 n j 8 1 ",
"7 8 u 2 7 t j L P O.O.....%.t.s.q.v.v.v.v.v.2.,.} ) ^ Q M r r r r r e w q 3 : : : * % - v y.i.y.5.%.;.#.O.O.I L G t 7 u h j s 7 ",
"s s 8 7 t u j I X.O.v ..+.%.5.0.v.b.v.v.v.c.,.} ) ^ Q M r r r r r r w q 3 > : - % O & v 5.i.i.i.5.$.%.@.@.O.I H s t u h u u h 7 ",
"9 2 7 8 u u j l x O.O.O.$.3.8.v.b.b.v.v.c.,.} ) ^ Q M r r r r r r e q 3 : : - % # & a 6.a.i.i.s.6.%.O.O.P x L j t 7 u u 2 7 8 9 ",
"1 < 8 t j j j y y O.O.$.4.{ 2.v.v.v.c.c.<.} ) ^ Q M r r r r r r e q 3 : : - % # # 6 5.j.p.y.u.6.;.#.O.c a L H u u t 2 7 2 7 8 9 ",
"< 1 7 2 2 s j L x O.#.;.6.c.<.<.v.c.c.<.} ) ) ^ Q r r r r r r r q 3 : : : % # % 6 3.i.f.y.u.6.6.;.&.&.@.L C j u j u 7 8 2 7 7 1 ",
"1 7 7 2 1 t p l x O.#.+.5.0.b.} c.2.<.} ) ) ^ Q M r r r r r e w q > : : & % % 4 3.i.y.y.5.5.:.;.*.&.@.o.G C u u n j h 7 2 8 s 1 ",
"2 7 7 7 t s j x c O.O.O.5.6.b.b.,.,.} ) / ( ^ B r r r r r r w q > : : - & & 4 +.i.t.t.t.%.;.%.*.&.@.I E R Z j H Z Z h 7 7 u h 1 ",
"1 8 8 8 t u H I I @.#.$.;.5.M.n.,.} } ( ^ Q M M r r r r e w q 3 > : - & & > #.p.p.5.5.5.;.#.O.O.@.L H I R Z u h n n h u h h h 2 ",
"7 7 8 8 t C R I @.@.@.;.%.3.4.b.b.( ) Q M r r r r r r e w q q > : : = = > +.i.i.t.3.3.%.%.O.c P x x j H H C u 8 u h m b h Z D s ",
"2 2 u t n H H I ~ @.@.*.%.5.u.q.N.b./ Q r r r r r r r w q q 3 > : - = : v y.i.t.3.%.+.#.O.O.x l p t f j u u h u 8 8 b u u j h s ",
"1 7 h C Z C H I I @.@.*.;.6.5.y.r.Z.b.) Q r r r r r w q 3 3 3 : - = - v 5.p.y.5.5.+...O. .c l l 2 2 u t t h n n t 8 t 8 t 8 8 2 ",
"s h 8 u n n C I L P @.*.#.;.u.5.y.B.m.n.<.) r r r w q 3 3 3 : = & - y 3.t.t.5.5.+... .c x l L j 2 2 2 7 7 u h n u 7 8 ; 7 7 8 1 ",
"8 h 8 u h n Z G x x @.@.#.;.6.5.i.j.B.m.n.v.) r e w q 3 3 : - = - y $.t.y.3.%.$.....c X.l j x u u t 7 8 2 2 u h h 8 ; ; 2 2 9 1 ",
"9 h u 8 t Z C u j L X.&.&.;.6.;.u.f.p.B.n.m.v.Q e q 3 3 > : - - 6 +.3.3.5.$.O...a O.P P L x u 7 7 t 8 t 2 2 u u u 7 ; ; 2 7 8 2 ",
"9 7 7 8 h Z Z C j x x @.@.*.;.;.6.i.i.f.B.n.n.,.) e 3 > : : - 5 #.y.t.3.$...O.a c X.c p j t t 2 2 8 t h t 7 2 2 2 2 2 2 8 8 2 1 ",
"2 8 2 8 n Z Z n j H I I @.&.*.;.:.5.5.u.f.r.M.b.v.c.M M 3 3 y O.u.i.5.5.+...O. .c x l j f t 2 ; ; 7 7 t t 8 7 7 2 2 2 8 h 8 2 1 ",
"1 2 2 u n m u h j H H o.@.@.@.;.*.;.5.5.u.i.s.r.N.b.b.,.} G @.5.u.i.7.5.#.O.@.X.p p 5 5 2 2 2 2 2 2 2 2 2 7 t 7 2 7 2 2 8 7 2 1 ",
"< 1 8 V n Z C Z C C H H @.I X.&.*.;.;.;.5.u.s.s.f.r.r.b.<.=.7.s.u.7.6.;.*.@.@.P p p 2 2 2 2 2 2 2 2 ; ; 2 7 7 7 2 8 2 2 h 8 < < ",
", 2 8 V C Z Z n n j j j I @.I @.@.*.@.*.6.6.u.u.u.u.6.7.] 6.u.6.6.:.;.;.*.@.I x p t 2 1 ; ; 2 7 7 8 ; ; 7 2 2 7 8 8 2 8 8 2 < * ",
", 1 2 h V Z Z h h u t u C I @.o.X.@.@.;.;.;.;.;.6.6.;.%.%.:.:.:.;.*.@.&.&.I L G f u u t 2 2 7 2 2 2 ; 2 7 8 8 7 7 8 8 8 7 1 < @ ",
"@ , 2 k D Z U C n u t n C j C E I I @.@.@.;.;.#.;.:.;.%.*.;.*.*.&.@.X.o.@.I G C C n C h 8 8 8 8 8 2 ; ; 2 7 8 h 8 8 s 8 2 1 = @ ",
"X @ , 2 h h s s C h C H R C j H I I X.O.@.&.;.@.;.;.;.*.*.-.@.O.@.@.@.&.o.E R R R C Z Z h C C C u 7 7 7 2 2 7 u 7 2 8 7 < , @ o ",
". o @ , 2 9 9 9 V V s S D S S S S o.o.o.o.o.&.@.@.-.@.@.@.@.@.@.X.@.@.X.H o.o.D D h D D D D D D C h s 8 7 2 2 s 7 7 1 1 , @ . . ",
"  . o @ = < < 1 0 s 9 s s s s s h k k k l  .X. .X.X.X. . .X.X.X.X.X.L k k k k k h s h h h s s h h h 9 7 7 2 9 7 2 2 < * @ o .   "
};
