/* XPM */
static char *_c14e21bd913438786b0abe0ed4ecb37SWvLFuzWXLFi1UnS[] = {
/* columns rows colors chars-per-pixel */
"64 64 256 2 ",
"   c #440266",
".  c #FA0155",
"X  c #FB015A",
"o  c #F5025E",
"O  c #F9014E",
"+  c #ED046D",
"@  c #F3036A",
"#  c #F70465",
"$  c #EC0474",
"%  c #E5057B",
"&  c #EB057B",
"*  c #E60678",
"=  c #F70578",
"-  c #5C0297",
";  c #55138D",
":  c #631499",
">  c #6E0A96",
",  c #6603A8",
"<  c #6B16AA",
"1  c #7415AD",
"2  c #7506B8",
"3  c #6F0FB4",
"4  c #7623B9",
"5  c #531AAB",
"6  c #7A09C7",
"7  c #7A0EC8",
"8  c #722ACD",
"9  c #6A3DF1",
"0  c #522FC2",
"q  c #6D46F5",
"w  c #840DBA",
"e  c #B814AD",
"r  c #BD13BD",
"t  c #BA14B4",
"y  c #B111B7",
"u  c #BD0999",
"i  c #DC0A8B",
"p  c #DD0787",
"a  c #C90D9C",
"s  c #D50C95",
"d  c #DB0B93",
"f  c #D50C9C",
"g  c #DC0B9B",
"h  c #D90297",
"j  c #E40883",
"k  c #EA0883",
"l  c #E30A8C",
"z  c #EA0789",
"x  c #F50787",
"c  c #E40A93",
"v  c #EC0993",
"b  c #EC0B9D",
"n  c #E6099A",
"m  c #F5099D",
"M  c #F60894",
"N  c #CE0EA4",
"B  c #CC0EAA",
"V  c #CA05AE",
"C  c #D30DA3",
"Z  c #DB0CA4",
"A  c #D40EAB",
"S  c #DB0DAC",
"D  c #D704A5",
"F  c #C810AB",
"G  c #C403BB",
"H  c #C907B6",
"J  c #DB0EB4",
"K  c #D70CB8",
"L  c #C511B3",
"P  c #CB10B4",
"I  c #C312BB",
"U  c #CC11BC",
"Y  c #D311BC",
"T  c #DA10BD",
"R  c #D310B5",
"E  c #D911AE",
"W  c #E60BA7",
"Q  c #F60BA7",
"!  c #E40BB3",
"~  c #E30EBB",
"^  c #EC0DB7",
"/  c #F60CB8",
"(  c #E812B9",
")  c #8615CA",
"_  c #8709D7",
"`  c #881AD9",
"'  c #941DDB",
"]  c #9D1DDC",
"[  c #981AD7",
"{  c #940FCD",
"}  c #B909CC",
"|  c #A819C9",
" . c #BC13C4",
".. c #B515CD",
"X. c #BB14CB",
"o. c #B416C6",
"O. c #AB02DB",
"+. c #B909D9",
"@. c #AD16DC",
"#. c #A41CDC",
"$. c #AA1ADD",
"%. c #A817D4",
"&. c #B315D4",
"*. c #BB15D4",
"=. c #B216DB",
"-. c #BB16DB",
";. c #B419DC",
":. c #BB1BDC",
">. c #B819D4",
",. c #A70ECC",
"<. c #8621DC",
"1. c #8B21DC",
"2. c #8A23D5",
"3. c #9320DD",
"4. c #9820DC",
"5. c #8523CC",
"6. c #8B02E8",
"7. c #9808EA",
"8. c #8D1EE4",
"9. c #8D1FEB",
"0. c #941FE4",
"q. c #9B1EE3",
"w. c #941EEC",
"e. c #9B1DEB",
"r. c #9914E8",
"t. c #9902F2",
"y. c #8F1FF1",
"u. c #941EF3",
"i. c #9C1CF4",
"p. c #9B1CF9",
"a. c #9618F6",
"s. c #A908E7",
"d. c #B40AE8",
"f. c #AC17E2",
"g. c #A41DE3",
"h. c #AB1BE4",
"j. c #A41BEC",
"k. c #AB1AEC",
"l. c #A713E9",
"z. c #B316E3",
"x. c #BC15E3",
"c. c #B31BE4",
"v. c #BB19E3",
"b. c #BB16EC",
"n. c #B31BEB",
"m. c #BC1AEB",
"M. c #B114EB",
"N. c #A809F3",
"B. c #A31BF3",
"V. c #AB1BF3",
"C. c #A719F8",
"Z. c #B31AF3",
"A. c #BC19F4",
"S. c #B51BF9",
"D. c #BC1AFB",
"F. c #B814F3",
"G. c #B00DF1",
"H. c #8721E2",
"J. c #8B20E3",
"K. c #8B20E9",
"L. c #8A2BE7",
"P. c #9220E3",
"I. c #9828E9",
"U. c #8532E4",
"Y. c #973AF9",
"T. c #962FF1",
"R. c #A626EA",
"E. c #A827F4",
"W. c #B924F7",
"Q. c #A735FB",
"!. c #B42CED",
"~. c #AB2CDE",
"^. c #CB0CC8",
"/. c #D40DC7",
"(. c #C413C4",
"). c #CB12C3",
"_. c #C314CC",
"`. c #CA13CB",
"'. c #C719CB",
"]. c #D411C3",
"[. c #DB11C4",
"{. c #D412CB",
"}. c #DB12CB",
"|. c #C90CD7",
" X c #D90FD5",
".X c #C414D4",
"XX c #CB14D4",
"oX c #C415DB",
"OX c #CB14DB",
"+X c #C519D9",
"@X c #D313D4",
"#X c #DB12D4",
"$X c #DE13DA",
"%X c #D414DC",
"&X c #E70EC7",
"*X c #F70EC7",
"=X c #E510C9",
"-X c #F310CD",
";X c #E313DC",
":X c #E813D7",
">X c #F311D4",
",X c #FB10DD",
"<X c #F211DB",
"1X c #F10FD8",
"2X c #CB15E3",
"3X c #C41AE5",
"4X c #C316EB",
"5X c #CC15EB",
"6X c #C41AEB",
"7X c #CB1AEC",
"8X c #C617E4",
"9X c #D415E4",
"0X c #DC14E3",
"qX c #D415ED",
"wX c #DC15EB",
"eX c #D219EC",
"rX c #DB19ED",
"tX c #D51AE5",
"yX c #CB17F3",
"uX c #C31AF3",
"iX c #CC1AF3",
"pX c #CD17FA",
"aX c #C31AFB",
"sX c #CB19FA",
"dX c #C517F5",
"fX c #D416F4",
"gX c #DC16F2",
"hX c #D319F3",
"jX c #DC19F3",
"kX c #D219F9",
"lX c #D919FA",
"zX c #CD0EE3",
"xX c #E314E3",
"cX c #EB14E3",
"vX c #E415ED",
"bX c #EB14EC",
"nX c #E519EC",
"mX c #F413E4",
"MX c #FB11E2",
"NX c #F315ED",
"BX c #FA14EB",
"VX c #E316F3",
"CX c #EB15F2",
"ZX c #EC15FC",
"AX c #E61AF8",
"SX c #F315F3",
"DX c #FB14F3",
"FX c #F816FB",
"GX c #E60FE6",
"HX c #C826E7",
"JX c #C726FB",
"KX c #D524FC",
"LX c #CF28EF",
"PX c #E321FB",
"IX c #C620DB",
"UX c #8445F7",
/* pixels */
"d @ . $ K oXF.Z.4X0X/ Q &X9XkX5XXXXX9XhX#Xd g f Y XXuXA.n.C.B.0.1.<.q.&.F d k -XDXFXZX|.s.6._ T.Q.E.t.O.H ! *X*Xj N ..i.H.3.h.3X",
"f $ = Y uXW.S.A.hX=X= x E '.3XuXm.:.3XqXc & k W $X9XyXaXb.Z.V.j.q.2.q...I N d =XNXDXBXZ ^.d.C.Q.Q.) 6 6.G.KXZX,Xj N >.j.2.3.h.oX",
"Y v Q qXJXJXKXlXnXx = b Y +Xv.W.S.n.uXXXZ z m <XcXnXwXfXyXdXD.n.q.H.u.j.=. ..XhXgXZXQ . v #XiXJXJX6 - 6 E.JXZXMXv P b.j.1.1.g.-.",
"{.~ / 0XlXAXCXNXM @ z Z ).:.W.E.r.r.G.+.^.J &XmXmXmXbXVXkXaXZ.B.9.<.K.u.B.k.Z.3X7X0Xj # # Q ;XPXiX7._ 7 E.JXAX,XW {.b.k.3.1.g.v.",
"OX:X>XcXbXSXCXQ + z Z P '.$.' ) 7 _ 7.s.x.OX%XvXZXSXvXqXdXZ.B.9.H.u.K.<.w.p.j.c.m.U s l $ M *X<X X|.F.V.E.JXPXMX^ %XaXk.3.1.#.c.",
"`.J ^ =XxXVX#Xi d C I X.| w < < 3 7 _ [ l.b.OX}.^ ~ ]..XZ.B.w.H.u.j.i.w.1.J.q.g.$.o.L f Z &X<X,X-X&XqXsXJXJXnX-X*X9XaXk.0.1.j.c.",
"L i p s A Y P P I  .=.g.' 1 : : : < 2 _ l.4XA & j C `.b.V.e.8.u.g...k.B.q.1.1.0.i.f... .5XfXVXbXMX*XW /.d.N.^.m / 0XoXc.e.8.i.=.",
"I a F L I (._.*.z.k.i.0.2.< ; ; : 1 ) B.b.9Xc l Z U -.k.] ' i.j.o.r m.Z.f.#.' 1.w.i.j.k.n.6XeXgXbXx @ z V +.|.^ / J P &.e.8.i.k.",
" .r o...&.;.c.k.B.p.w.1.<.8 : < 1 ) g.W.kX;Xc S P _.;.%.[ q.j.&.t XXdXm.v.;.#.q.' 8.u.e.g.n.b.sX}.j = = x D |.&X-XS P &.i.K.u.k.",
"$.$.g.j.B.j.j.j.j.e.I.P.K.1.4 ) ) ] ;.2XgX#XA )._.>.| | | f.;.X.P 9XeX8X+XoX>.@.e.0.J.w.i.B.V.A.(.C d z = M =X;X<XS B >.i.9.u.j.",
"e.i.i.w.q.] ] #.k.k.k.R.I.` 7 ) q.;.oXiXhXXX(.x.c.| y | ;.-._.`.].wXlXqX9XXXP  .=.B.i.K.9.e.e.V.&.I B g n >XNXbXCXS F &.i.K.8.e.",
"3.P.P.' [ | | &.z.n.n.h.%.[ ' r.@.(.`.7Xm.:.c.V.g.%.o.>.m._.B s s ].;XxX0XJ d P .Xc.k.e.3.1.P.q.g.&.X.P #XVXCXZXCXK I =.i.K.2.3.",
"3.q.j.$.&.o.o...-.;.&.o.e y %.@.X.Y ].3Xn.R.E.E.q.%.*.+XXXR f p a r {.;Xn l c W Y OXm.k.g.3.J.K.u.j.k.x.4XqXjXwXvX]._.h.e.H.2.1.",
"g.h.z.>.X. .r X.-.-.r e e e t  .`.%X2XA.E.E.E.R.j.-.XX@X].S d a ,.f.6X@Xc v x v ! wXiX6Xc.#.q.9.K.u.i.C.S.uXiX2X9X`.-.k.e.1.3.q.",
"n.v.*._.(.I I _.m.;.o.y t t L U {.XXm.n.R.E.R.E.Z..X{.#X[.n A o.e.E.Z.+.Y ^ M M &XbXgXkX3X..f.i.w.K.K.e.j.Z.v.X.(.(.$.e.J.P.g.h.",
"A..X(.`.P P @X5XuXM.%.%.o.r I Y Y .XM.g.3.I.E.S.3X@X=X;X=XK } f.I.R.e.N.4X$X*XQ >XSXbXAX].P  .@.B.w.2.1.0.j.@.&.&.%.q.w.J.j.Z.Z.",
"dXXXU U C [.qXiXaXM.r.r.#.;.*.{.{.-.k.0.2.3.V.m.OX#X:XcXxX{..Xz.R.R.r.7.F.hXbX1XcXSXSX-Xz g P  .z.j.3.<.<.e.B.j.#.] e.1.q.k.b.uX",
"pXXXY K Z $XqX7Xb.l.a.a.r.h.:.XX`.c.j.J.J.I.c.3X%XxXcXvXgX#XOXm.k.%.l.C.D.iXnXbXnXAX-XQ x k S Y 8Xn.g.' 1.<.u.u.0.q.0.0.k.x.4XaX",
"kX%XK &X~ }.^..XM.7.r.' q.c.+X`._.R.I.L.T.E.m.6XeXxX;XwXfX2X.X*.o.o.&.x.7XqXnXnXAXqX}.^ x o k Z Y .Xc.k.e.K.<.H.K.u.w.j.z.8XyXpX",
"lX$Xn c g V } z.N.7.{ ) #.6X@XY >.R.I.T.T.E.W.JXeX$X;XwXhXoXX.o.y >._.`.].~ ( ;XlX5X9X#Xh & x v W ].4XZ.k.e.9.H.9.w.e.k.x.dXiXfX",
"=Xk $ j D G +.S.r._ ) ' $.+XS N &.r.` 7 7 [ h.JXeX$X;X9X5XoX..%.| ;.oXXX[.! Q ^ $XqXfX XV K W x M xXlX5Xv.k.i.K.w.e.g.h.m.6XeXlX",
"$ $ v h H +.Z.E.r._ L.I.:.{.W P s.r.4 < 7 ' k.A.tX$X;XqXyX*.&.#.[ k.v.).Z v m Q / =XW p h S ! b / SXvX9X6XZ.i.H.w.k.n.c.b.7XfX=X",
"@ k ! U } M.E.E.` ` T.~.IX}.! (.l.8.8 4 5.R.Z.uX9X;X;XqXdXX.f.e.0.B.z.L d v W &X-Xv + & $ x Q Q >XDXbXwXiXZ.i.8.0.k.Z.6XdXsX[.* ",
"$ h {.OXx.n.E.E.2.<.I.!.XXn l } B.I.U.U.I.R.W.sXqX;X;X9XdX>.k.u.J.p.=.L E [.#XxX;Xc z z k z Q *XMXNXNXVXsXZ.B.e.' f.m.7XkXT * + ",
"h {.2Xd.l.k.E.E.2.L.I.%.G % g -.j.L.U.U.R.W.JXiX^.l & C (.&.B.u.H.p.f.X.oX7XyXkX9Xd i d d c ^ :XcXCXZXbX9XD.V.q.[ $.v.iXT $ + + ",
"^.JXG.7.[ q.R.R.2.4 > { V z K ;.I.L.U.I.~.HXLXd.G * + d P >.B.w.1.i.V.Z.n.v.m.6X_.B N C C ].0XwXwXwXJ l d `.z.g.' #.n.yXc @ @ p ",
"JXS.t.r.0.I.I.R.1   > ,.S v {.m.E.L.T.R.HXtX4X} h + $ d P >.B.9.<.w.p.B.g.h.h.c.>. . .I _.6XiXiXiXP s f Z Y X.j.' q.Z.aXg $ k V ",
";XH +.W.W.W.W.V.6 2 w O.W Q rXJXE.E.E.:.HX9X} h $ $ i C I =.B.K.<.1.H.J.0.q.] g.j.k.f.f.M.c.v.m.:.I I L U {.I k.w.K.C.aXE x M ~ ",
"M x >XCXAXAXrX} O.s.N.d.! >XVX7XW.W.W.HX%XG h $ $ i C I =.B.w.<.J.1.<.<.<.2.2.J.u.u.p.p.g.#.h.h.@.&... .*..XI f.w.1.j.D.@XW ^ >X",
"K T vXCXCXNXz * p C ^.|.&XxXfXhXuXuXLXrX/.c = = l C I &.B.w.<.w.e.e.0.P.1.1.<.<.<.<.H.J.3.3.4.e.i.B.j.k.V.z...z.i.<.e.n.A.oX5X@X",
"b.A.uX7X7XY i l p p g [.;XqXsXuXuXkXjXrX! = x c Z I &.B.0.2.3.j.k.k.j.j.e.q.0.P.9.K.1.<.<.<.<.K.y.u.u.e.q.B.j.k.q.<.9.w.i.B.V.M.",
"w.e.j.k.c.X.(.I L I (..XOXyXA.Z.n.yXvXxXb v W R (.&.j.w.1.0.g.n.m.v.c.n.V.V.j.j.B.i.i.u.u.K.H.H.<.<.<.2.1.u.w.3.2.9.w.K.H.1.1.w.",
"K.K.K.9.w.i.B.k.z.n.n.Z.Z.n.k.g.$.m.5XwX[.A )..Xz.B.e.1.3.g.n._.U `..X8Xb.D.Z.&.=.@.f.j.B.p.e.u.u.K.J.2.<.<.<.<.w.f.=.V.B.e.0.0.",
"f.j.e.u.w.w.e.e.e.] #.g.j.e.0.w.e.#.&.m.b..X-.k.B.w.2.0.g.c.I s g S {.%X2XpXoXL r  .X...z.V.V.B.B.i.e.q.e.P.<.w.f.(.%XyXaXA.X.=.",
"P L  .X.=.n.V.V.#.| | [ [ e.9.0.e.B.k.k.B.j.j.p.9.1.0.B.n.I s % W ~ =XxXwXgXR s N B B (.uXD.A.c.&.@.@.k.B.J.K.B...OXVXZXZXS i C ",
"v % p d {.5XyXdXx._. .o.%.] j.@.%.#.j.i.e.w.9.9.H.y.i.k.>.I A J cXSXNXSXCXCXn j d d Z 9XeX7XsX_.L r  .f.i.<.u.f..XfXbXFX-X. o @ ",
"v = o m NXCXVXvX9X9X{.). .| &.X.X.| #.q.q.e.e.w.8.K.u.i.f.=.oXfXgXbXSXFXDXDXm = z z ! VXnXrXwXf f N X.B.J.1.B.z.OXVXSXSXG V h z ",
"4X|.H xXCXBXBXBX1XGX0X).r o.>.*..X;.h.n.Z.Z.=.f.e.' H.u.B.V.b.aXkXwXbXSXFXDX/ = M Q *XSXCXZX&X* d L h.P.<.P.k.4XfXZXFX=XO.6.6.s.",
"Q.E.C.W.JXiX9X#X^ / 0X`.X.%.Z.v.*.;.n.6XsXyX(.>.f.e.' H.w.B.V.A.dXeXrXCXFXMXmX^ Q *X,XDXFXFXM % A -.j.1.2.q.n.2XwXFXmXG t., , L.",
"UXY.4 3 2 _ 7.+.! Q $XOX&.#.S.m.:.;.h.m.iXwX]._.-.k.e.1.2.3.q.k.n.uXhXgXbXmXMXmX:X;XcXSXFXDXx S .XV.q.<.3.h.A.fXcXm h O.6.- 5 q ",
"UX8   - 2 _ d.|.^ / [.`.z.j.Z.v.-.;.n.n.OX]./.XX8XZ.V.e.1.<.3.q.h.n.uXpXgXbXmX,XmXnXAXVXNXQ % A -.B.1.2.] n.sX$X= o G t.2 ; 0 q ",
"Y.: - 6 6.G.2X:X-X>XT `.M.g.z.X.r ..V.@.y H /.^.(.*.z.j.i.H.<.P.e.V.S.aXpXgXvXmXMX-XT V x @ i L =.i.<.P.k.D.].+ . h O._ - ; 0 UX",
"2., _ t.d.eXnXBXDXSX[..XV.#.&...t o.M.,.y u V U a L  .=.B.u.H.<.0.i.V.Z.aXpXgXVX/ . $ % # j C  .j.9.1.e.S.XXj o @ G t.2 5 0 8 T.",
"[ 6.N.+.%XCXBXSXZXVXT 8XV.g.=...t X.z.z.} e N /.C N P  .=.B.e.1.<.P.e.V.Z.aXpX#X$ o X X x Z L =.i.<.P.k.b.f $ X p s._ 3 9 9 Y.Q.",
"S.G.zX X:XDXSXbXgX9X].8Xj.j.z...X.-.b.b.x.OX/.xX~ g A `.b.c.g.e.H.<.P.e.k.Z.aXB i & # X c ]. .j.K.2.q.Z.XXj # @ G N.6 8 q Y.Q.JX",
"kX|.=X-X,XSXAXgXhX2X.Xb.j.j.V.c.n.dXsXsX5X9X9XAX:XW ~ {.2XX.z.C.w.1.<.P.e.k.;.I C d $ $ [.8Xz.i.<.3.h.A.R $ X p O.E.L.8 Y.Q.JXKX",
"nX<X*X*XcXVXkXiXdXb.m.S.j.j.V.k.n.uXkXlXfXVXrXlXNXm v c f B -.Z.j.q.1.<.u.i.f...I N i &XkXZ.B.9.2.] n.XXd # @ G V.Q.Y.Y.Q.JXKXPX",
"mXMX,XcXwXfXsXuXm.c.h.f.] ] B.B.V.A.kXlXVXZXAXKXxXx = z c {.7Xv.c.g.q.K.<.y.p.k.&.I ).hX3Xc.e.<.3.h.X.C v = W +.W.Q.E.q.S.KXPXnX",
",XmXbXgXqX4XA.n.f.#.] ] [ ' e.e.V.A.5XVXbXCXZXZX;XJ m M b ;XfX8Xm.c.j.p.K.<.y.p.V.;.4XiXv.g.1.<.q.&.B g Q M ^ 0XhXF.6.7.F.9XxXmX",
"mXvX$XP L X.@.B.e.' ' ] #.0.9.e.B.m.OX~ W &XGXbX1X! ~ / / 1XAXfX+XX.=.j.p.K.<.9.e.C.Z.b.c.q.<.u.f. .N g ~ >XQ M h G s.G.9X;X>X,X",
"VX#XN L ..f.B.i.8.0.q.k.f.e.K.P.B.-.U S W W &XGXW @ k b Q *X-XW s B *.=.j.p.K.<.J.e.j.g.q.1.H.u.j.&. .`.9XlXb O X $ K 9XcXMX,XmX",
"9XB r &.f.i.u.H.J.e.B.M.=.B.K.K.B.z.X.`.].T }.J % + X . $ x X # j d U X.&.B.q.1.<.1.P.1.<.J.H.H.u.i.f.Z.uXsXS * # = mXZXDXDXCXvX",
"`.r &.j.i.9.<.K.w.B.k...X.j.w.K.e.B.c.x.oX@X%XA s l & # X = @ . # c #X2X*.Z.g.' 1.<.1.P.e.j.i.K.H.9.e.#.c.b.).C l &XDXDXFXZXlXfX",
"X.@.j.p.K.<.9.i.B.V.&.r r %.q.K.1.0.g.$.;.oXOXU B C l k @ = x X # -XAXlX2XA.n.] 2.3.j.Z.D.c.f.i.u.H.1.3.g.h.-..X{.0XVXNXVXjXkXaX",
"f.B.u.K.<.w.e.j.V.&. .L e o.f.w.H.1.0.g.$.;.:.(.(.P C d c &X>Xx Q DXNXVXhXA.g.1.2.j.S.sXkX(. .@.B.u.2.<.1.q.B.Z.A.pXfXVXrXiXaXZ.",
"p.u.<.H.u.i.g.h...t L N a r &.j.e.1.H.0.q.#.h.z.-..X).U %XrXAX:X*XDXCXrXuXk.3.<.q.V.aXgXvXC B I =.k.] 1.<.2.e.B.V.A.dXiXsXD.Z.k.",
"9.<.K.i.B.V.Z. .F a R T Z U -.Z.B.0.1.1.P.' g.V.V.Z.x.b.dX2XqXwXvXZXjX7Xc.q.<.P.V.D.fXbXmXn g R .XZ.h.g.P.H.<.J.e.k.Z.A.A.V.j.e.",
"<.9.p.j.&.*._.P B ].xXvX=XT 2Xm.h.g.0.P.0.P.' q.i.C.C.Z.Z.m.6XXX{.0XeXm.j.1.1.j.v.5XVXMXMX/ v &XqX7X*.;.B.i.J.<.1.0.B.h.@.B.u.K.",
"u.i.f.>.r P Y Y T xXCXnX:X^ }.XX*.=.g.e.i.e.0.1.J.e.e.j.k.c.*.I P ].8XC.P.<.i.=.L Z / MXbX*Xx m W d C (.b.C.j.0.1.<.u.B.B.u.H.<.",
"B.f.X.I B ].0XxX:X;XwXtX:X/ ( }.`.X.&.#.j.B.i.0.1.1.1.0.i.j.@.&.X.oXS.e.<.u.f.I C b Q cXfXV % X . + j A 2XD.S.j.e.9.H.9.u.<.H.u.",
"V.-.(.R [.VXCXCXVXwX9XtX:X/ ^ ~ ].). ...$.j.B.i.u.P.H.H.9.u.p.j.k.Z.j.1.K.B.X.N l Q -XqXt.s.G h @ . = ;XgXpXuXn.k.i.u.K.<.9.i.B.",
"D.`.Y T =XNXSXnXjXhXtX:X-X*XQ ! K P L X.&.M.V.$.j.p.u.9.<.H.9.u.e.j.3.<.i.&.L i = / gXF.6 6.N.} D & *XFXZX0X].XX .&.j.u.H.p.C.S.",
"5Xs j & M -XVXlXLXLXxX>X*X1X&XW S A `.3Xm.uXX.X.z.V.B.p.u.K.<.<.1.3.2.0.f.I s & / 0XKXl., , 6 t.b.|.AXDXQ = ! [.N I =.i.H.e.Z.aX",
"T * @ X $ S OXdXJXrX<X,X1X0X0X[.T {.5X3XiXXXB P _.v.Z.V.B.p.w.1.<.<.1.g.X.N * / ZXlXKXG.6 , , 8.W.aXkXK + = Q &Xi B &.i.H.3.h.6X"
};
