/* XPM */
static char *d35d87ddad684c44fb89cf765635c4b4bJhkyUm1DUyEDi1S[] = {
/* columns rows colors chars-per-pixel */
"64 64 234 2 ",
"   c #000102",
".  c #01050B",
"X  c #01090D",
"o  c #010711",
"O  c #010B14",
"+  c #010D1B",
"@  c #031215",
"#  c #02131C",
"$  c #04191E",
"%  c #061815",
"&  c #06120E",
"*  c #052519",
"=  c #010E22",
"-  c #021323",
";  c #031B24",
":  c #02142B",
">  c #031B2C",
",  c #021633",
"<  c #031C33",
"1  c #031C3B",
"2  c #04232C",
"3  c #052427",
"4  c #042334",
"5  c #052B34",
"6  c #04233C",
"7  c #052B3C",
"8  c #082F36",
"9  c #06333D",
"0  c #07343A",
"q  c #08342B",
"w  c #0F4D36",
"e  c #186D3D",
"r  c #031D43",
"t  c #042443",
"y  c #052B43",
"u  c #04234C",
"i  c #052C4C",
"p  c #063343",
"a  c #073B45",
"s  c #06334B",
"d  c #073C4B",
"f  c #083F43",
"g  c #052D53",
"h  c #042C5C",
"j  c #042657",
"k  c #063353",
"l  c #073B54",
"z  c #05345B",
"x  c #063B5C",
"c  c #083F57",
"v  c #042B65",
"b  c #063B65",
"n  c #063C6B",
"m  c #053467",
"M  c #063C73",
"N  c #053778",
"B  c #094549",
"V  c #094954",
"C  c #094C5C",
"Z  c #084358",
"A  c #09535B",
"S  c #0A5653",
"D  c #10514C",
"F  c #146357",
"G  c #126850",
"H  c #074164",
"J  c #094C62",
"K  c #07436D",
"L  c #094C6C",
"P  c #084566",
"I  c #0A5B6B",
"U  c #0A5666",
"Y  c #074374",
"T  c #084B72",
"R  c #07447A",
"E  c #084D7C",
"W  c #084877",
"Q  c #0A547C",
"!  c #0A5975",
"~  c #0C6868",
"^  c #0C6778",
"/  c #117671",
"(  c #18A977",
")  c #198E77",
"_  c #19C571",
"`  c #063B89",
"'  c #063E95",
"]  c #084D82",
"[  c #07438A",
"{  c #074A88",
"}  c #095383",
"|  c #09558C",
" . c #0A5C8C",
".. c #0A5B82",
"X. c #074996",
"o. c #095593",
"O. c #095B94",
"+. c #08549B",
"@. c #0A5D9C",
"#. c #0C6787",
"$. c #0D7383",
"%. c #0E7B8C",
"&. c #0F7988",
"*. c #0A6394",
"=. c #0A639B",
"-. c #0B6B9B",
";. c #0C6C93",
":. c #0D7697",
">. c #107189",
",. c #074BA7",
"<. c #0854A4",
"1. c #095BA3",
"2. c #095CAB",
"3. c #0854AE",
"4. c #074CB4",
"5. c #0957B8",
"6. c #0A63A2",
"7. c #0B6CA3",
"8. c #0A65AB",
"9. c #0B6CAB",
"0. c #0C73A3",
"q. c #0C73AB",
"w. c #0E7BA9",
"e. c #107DA7",
"r. c #0B6DB2",
"t. c #0B6BBD",
"y. c #0A63B8",
"u. c #0C74B4",
"i. c #0C73BC",
"p. c #0D7CBB",
"a. c #0D7BB4",
"s. c #095CCB",
"d. c #0857C5",
"f. c #095CD5",
"g. c #0B6CC4",
"h. c #0A67C8",
"j. c #0C73C4",
"k. c #0D7DC4",
"l. c #0C73CB",
"z. c #0D7CCC",
"x. c #0A68D6",
"c. c #0B74D3",
"v. c #0D7DD4",
"b. c #0C7ADC",
"n. c #0A67E6",
"m. c #0B73E4",
"M. c #0C7EE4",
"N. c #0B75ED",
"B. c #0C7CEC",
"V. c #0B6DF2",
"C. c #0C7BF3",
"Z. c #0C7CFC",
"A. c #0B74F6",
"S. c #0F8089",
"D. c #138689",
"F. c #0F8396",
"G. c #118D9C",
"H. c #108994",
"J. c #14959B",
"K. c #199A8A",
"L. c #18AB91",
"P. c #0F84A8",
"I. c #108AA4",
"U. c #118CAC",
"Y. c #1193AA",
"T. c #1398A7",
"R. c #0E83BC",
"E. c #0E89BD",
"W. c #0E85B4",
"Q. c #108CB8",
"!. c #1195B3",
"~. c #1195BC",
"^. c #149BBB",
"/. c #129CB2",
"(. c #14A5BA",
"). c #17B0AD",
"_. c #1BCD8D",
"`. c #1AC1B6",
"'. c #0D84C3",
"]. c #0E8AC4",
"[. c #0D85CA",
"{. c #0E8BCB",
"}. c #108ECC",
"|. c #108CC3",
" X c #0F93C5",
".X c #0F93CC",
"XX c #0F98CB",
"oX c #1195C4",
"OX c #1192CB",
"+X c #119CCC",
"@X c #139BC3",
"#X c #0E85D2",
"$X c #0E8DD2",
"%X c #0E83DC",
"&X c #0E8CDB",
"*X c #108DD4",
"=X c #118BDB",
"-X c #0F93D3",
";X c #0F95D8",
":X c #1194D4",
">X c #119BD4",
",X c #1195DB",
"<X c #119BDC",
"1X c #15A9C8",
"2X c #17B4C9",
"3X c #13A5D8",
"4X c #16B3D5",
"5X c #0D83E4",
"6X c #0F8CE4",
"7X c #0D83EC",
"8X c #0F8CEC",
"9X c #118AE5",
"0X c #0F92EC",
"qX c #0F92E6",
"wX c #1095E3",
"eX c #119BE4",
"rX c #1095EB",
"tX c #119BEC",
"yX c #0D84F3",
"uX c #0E8BF3",
"iX c #0D83FA",
"pX c #0F8CFC",
"aX c #0F91F3",
"sX c #0F92FC",
"dX c #0F98FA",
"fX c #1095F4",
"gX c #119BF4",
"hX c #1095FB",
"jX c #119BFC",
"kX c #12A3E2",
"lX c #13A6E8",
"zX c #12A3FD",
"xX c #12A4F8",
"cX c #14B3F4",
/* pixels */
"5.` j 1 : + O o o . ; J ! L L l 6 i z M =.7.| M b n n b ] 2.c.8X<XlX>X:.#.Q.tXeX>X>X;X-X-X-X-X-X$X-X{.{.{.{.{.].].].].E.].#Xm.n.",
"v r , : # + O X o O > #.e.0.-.Q n R o.@.i.#Xj.t.t.t.+.{ c.uXeX3X3XtXeX{.-XtXgX,X-X-X-X-X-X$X$X$X{.{.{.{.{.].].].E.E.].v.m.n.d.' ",
", : + O O O o O - > 6 H *.0.*.E }  .*.-.0.a.R.[.$X8Xz.7.wXlX3X>X>X<XrXfX0XwX;X-X-X-X$X$X$X{.{.{.{.{.{.].].].E.E.'.v.n.f.4.` v r ",
"- # O O O O # : < 6 y s l x H L Q ..*.-.0.a.R.]..X,XeXeXtX<X>X:X-X-X-X-X$X$X$X$X$X$X{.{.[.{..X.X{.].].].E.E.E.z.m.f.,.N h r , : ",
"# @ O @ # - ; > 4 7 y s l x P T Q  .*.7.q.p.].{.-X:X,XwX;X-X-X-X$X$X$X{.{.{.{.{.[.[.].'.]..X.X X X X].R.'.z.x.f.4.N j r , : - - ",
"# # # $ - ; > 4 6 7 y i k b K E } O.=.9.u.'.[.$X$X$X{.{.{.{.{.{.[.[.[.[.[.[.'.].'.'.R.R. X X X X.X[.k.c.x.s.,.N j r : = + - ; $ ",
"$ $ $ ; ; > 4 4 6 6 i K Q } E ]  .=.7.i.#X$X{.[.[.[.[.[.{.{.{.[.'.'.'.k.'.].'.R.R.a.W. X-X;X6X6XM.x.s.5.X.m j r : = + - ; ; ; $ ",
"; ; ; > > < 4 4 4 6 H #.*.*.} ] O.6.r.z.[.{.{.[.[.[.k.[.[.{.[.'.p.p.p.k.[.{.].W.e.Q.:X6X5Xm.c.h.,.' N v u 1 : + + $ 2 2 2 ; ; ; ",
"2 > > 4 4 4 < < < 6 x .. . .] ] O.6.r.k.p.R.'.k.k.p.p.k.#X#Xk.a.u.u.j.i.i.$X:XQ.OXqXb.t.1.o.R h u t 1 , = = - ; 5 5 5 2 2 2 2 2 ",
"4 4 6 7 y 6 > > < 6 k T } E ] | @.8.r.p.p.R.p.i.u.u.u.i.6.=.i.q.0.u.7.L >.+XeX,X5Xt.O.E L H 6 : : : + + > 5 9 9 9 5 5 5 5 5 4 4 ",
"y y i i y 4 > > 6 y i z K R | O.6.8.r.r.u.u.u.q.9.7.7.r. . .9.-.;.7.u.W.OXtX6Xk.6.} T L Z 4 + O O . # 9 f f a p 9 9 9 9 y 7 7 7 ",
"k k k s 6 > : < 6 i k b Y ] | @.6.6.6.-.-.0.-.-.*.*.*.-.7.7.=.O.1.i.&X$Xk.u.-.#.Q ! J l > O . . . @ f B B d d d d d d s s s s s ",
"x x k y > ; : < 6 i z n W ] | O.=.*.*.-.-.7.7.-.=.=.=.O.{ { { O.7.-.;.#.#.^ ! J c p 2 + X . .   $ B V V V V V Z Z c l l l x x x ",
"b z y > - - : < t k x Y } | o.o.o.o. .O.O.| } ] R n v b T ! #.$.^ ^ ^ ^ C p 2 - # o . . . . @ 0 A A A A C C J J P Z H H H H H n ",
"z 6 : # # - > 6 i z n } @.6.| W T K L ! #.L l y 4 s I $.&.&.$.$.^ ^ C 5 $ o . .     . # 3 B I ~ I I I I ^ ! L L L T T T T T W K ",
"4 - + O + ; < 6 i z Y |  . .Q x Z C J ^ :.#.p 7 I F.H.%.$.^ I A d 2 # .     . @ 2 f B D D D ~ ^ ^ ^ ! >.(.U...Q Q } E } | } W z ",
"# O O + 4 d s y g z K ! ^ ! J Z C J J ^ >.! C S.T.&.I B 5 ; # O . .   . 3 f U ^ / $.F D U ~ / #.#.#.D G J.I... . . .7.}.,X]...6 ",
"+ + # ; B F D s k z x C S A Z C U U C U ^ &.T.H.U 7 # o X X . X @ 3 B ~ &.S.&.&.$.$.F F ) K.D.*.;.^ e F V a J =.=.@.}.cXlX~.^ 8 ",
"# - ; 4 w w w s k s p a B V C U I U C C $.G.~ a 4 9 V A ~ ^ / / S.D.H.H.%.%.%.%.%.:.$./ ) D.;.-.7.;.e G B C *.9.6.8.k.>XU.^ B 3 ",
": > < 6 8 q 9 p p 7 9 d C ^ $.%.%.%.F.G.T.&.^ &.F.G.J.J.G.H.H.H.H.H.F.H.F.F.F.:.e.0.0.0.-.7.9.q.9.r.;./ H.q.u.r.t.t.2.E l 5 > ; ",
"4 6 t y y 7 7 7 9 a C ^ F./.(.(.(.(.(.(./././.T.T.I.G.G.G.G.G.G.G.G.I.I.I.P.P.e.q.q.q.u.i.i.i.i.i.i.i.i.i.j.j.l.g.2.R i < : > 4 ",
"6 7 7 7 7 8 9 p B A ^ G.(.1X1X1X1X1X(.^./.Y.Y.Y.Y.Y.Y.Y.Y.Y.Y.Y.Y.Y.Y.U.U.W.W.a.p.p.k.l.l.l.j.j.j.j.j.l.l.l.l.g.1.Y i 4 4 4 6 6 ",
"5 5 5 5 5 8 9 a V ^ G.(.1X2X1X1X1X1X@X^./.T.!.!././.!.!.!.!.!.!.!.~.~.~.Q.E.R.'.[.v.c.Q.L.L.Q.c.l.l.k.K.( T.g.| z t 4 < 4 4 5 5 ",
"; ; 2 2 2 5 5 d ! I.1X2X2X2X2X1X3X+X@X^.T.T.(.~.~.~.~.~.~.oXoXoXoXoX|.|.].[.#X#X%X%X5X).( ( L.#Xb.m.T._ L./.Q x 4 : > ; $ ; 2 ; ",
"$ $ $ $ ; 2 9 I I.3X4X2X2X2X2X1X+X+XOX@X).).).@XoXoXoXoXOXOXOXOX}.}.{.$X$X&X6X5X5X5X8X`.L.D.L.+XN.x.P.2X+X3X>.d > $ ; # & % ; $ ",
"@ @ O @ % 2 J P.3X4X4X4X2X2X2X3X:XOXOX:X1X`.).OX}.OXOX}.*X*X$X*X&X6X6X6X6X8X7X7X7X5X7X3X_._._.&Xx.{ b e.^.1X!.p # @ @ @ X & # @ ",
"O O X & $ l :.1X3XkXkX3X3X3X>X:X:X:X:X*X:X1X>X$X*X&X&X6X6X6X8X8X8X8X8XuXuX7X7X7X7X7X7X7X3X2XOX5.M t # 3 V I Z # X O O O X O O O ",
". X X # s :.+X3XkXkXkX<X<X,X,X,XwXwXwXwXwX6X6X6X6X8X8X8X8X8XuXuXuXyXyXyXyXyX7X7X7XB.C.Z.V.d.` g : + X . . . . . . . . . . . . . ",
". X # p ;.oX3XkXkXkXeXeXwXeXtXtXrXrXwX0X8X8X8X8X8XuXuXuXyXiXiXiXyXyXiXyXyXyXB.B.C.Z.n.5.N y : O X . . . . . . . . . . . . . . . ",
"O ; l ;.oX3X3XkXeXeXeXtXgXgXrXrXrX0X8X8X8X8XuXuXyXiXiXiXiXiXiXiXC.yXC.C.C.B.B.C.A.d.m < O . . .     .   . .         . . .   . . ",
"l ! w.OX>X<XeXeXwXwXgXlX^.:XfXaX8X8X8XuXyXyXyXiXiXiXZ.C.C.C.C.C.C.C.B.B.B.C.A.n.X.1 o .                                   . # 4 ",
"w.E.OX>X<X<X<XwXtXjXjX4XK.J.:XuX8XyXyX9X9X7XiXZ.Z.Z.C.C.C.C.C.B.B.B.C.C.A.V.5.v = .                                   X > s L *.",
"OX:X:X,X,X,XrXgXjXhXhX3X1X@X^.yXyXiX*XOX*X=X%XC.Z.A.N.N.N.N.N.N.A.A.V.n.d.` 1 o                                   . - c #.0.R.].",
"OX:X:X,XwXgXzXjXfXfXpXkX(.^.^.yXC.yXOX*X5X5X%X5XA.N.N.n.m.N.A.A.n.5.` v 1 + .                                     ; T q.R.].[.}.",
":XwXtXxXzXzXhXhXdXsXuXdX2XL.,XZ.C.C.,XOX*X$X#Xb.x.x.x.n.V.n.d.' v , + o .                                       # L q.R.'.].{.:X",
"zXzXzXgXgXrXqX6X%X%X%Xv.'.e.t.2.1.<.+.} Q E M N ` X.s.f.' v 1 + o .                                           O l 7.p.'.$XwXtXxX",
"zXjXgXrX0X6X&X#Xz.i.r.8.1.+.o.o.X.,.,.4.4.,.3.y.g.j.@.t + o . .                                             # s *.a.{.tXzXzXzXzX",
"jXgXfX0X8X8X5X%Xv.c.l.g.g.g.l.c.m.m.c.j.i.r.9.*.T y . . .                                               . ; T q.].eXzXzXzXzXzXjX",
"fXaX0X8X8X8X8X7X5X5XM.M.b.b.%XM.M.g.1.} K i ; .                                                     . O s *.,XxXzXzXzXzXzXjXjXgX",
"aX8X8X8X5X5X5X5X5X5X%X%X%X6XM.m.<.h s 8 3 ; @                                                   X ; s  .[.tXzXzXzXzXzXzXjXhXfXfX",
"8X7X5X5X5XM.M.5X5X5XM.7XwX~.q.` , 4 p 2 2 ; @                                             . + y T 9.#XtXzXzXzXzXzXjXjXhXgXfXaX8X",
"5X5Xb.b.b.c.c.c.c.c.l.[.! D U r + > 9 2 3 $ .                                         . : x O.z.rXjXjXjXjXjXjXjXhXhXhXfXaXuX8X8X",
"M.7XM.c.g.t.y.y.2.1.X. .V P b = . X $ $ @ .                                     . # y E i.6XhXjXjXjXjXjXjXjXhXhXhXfXaXaXuX8X7X5X",
"7Xy.z > O O + + = : : u { ] , o .                   . .                   . O 4 K 8.&XfXjXjXjXjXjXjXjXjXhXhXhXaXaXuXuX8X7X7XM.5X",
"g .   o + = : : 1 u v ` ,.m . .                   . . . . .   . . . . O : k o.z.fXjXjXhXhXhXhXhXhXhXdXhXaXaXuXuXuX8X7X7XM.M.7Xg.",
"  O : 1 r j v N ` ,.3.<.o.t   .       . . . . . . . . . . . X O - 6 z | t.5XhXhXhXsXsXsXsXpXpXsXsXpXuXuXuXuXuX7X7X7XM.M.7XM.R . ",
"+ , j N X.4.d.s.h.y.6.O.*.4 O . . . . - 5 ; o o O O + # ; 1 k R 6.l.7XsXhXhXsXsXpXpXpXpXpXsXuXuXuXuXuXuXyX7X7XB.M.B.yXB.2.<   . ",
"1 m ,.x.n.b.c.j.r.7.*.0.! 5 5 X . . O 6 s l y < 1 y z Y +.t.%XuXsXsXsXsXsXhXhXpXpXpXiXiXiXgXtXyXyXyXyX7X7XB.B.yXC.c.X.6     . + ",
"N d.N.M.v.k.p.u.q.7.=. .0 0 9 # O < i ] 6.9.i.8.y.l.M.yXsXlXxXsXpXpXpXpXsXgXgXpXiXiXiXC.C.uXfXyXB.B.M.B.aXcX8X2.z O       . + 1 ",
"f.B.#X[.[.].'.a.q.7.6.4 3 a p 6 z { 1.t.5XhXfXuXpXpXpXpXpXtXgXpXpXpXpXpXpXsXpXiXiXC.C.B.N.C.iXC.iXiXiXB.$XG.d       . . . + 1 N ",
"5X$X[.[.[.{.{.[.k.k.| - 4 k b R o.1.y.h.b.yXyXiXpXpXpXpXpXpXpXpXpXpXiXiXiXiXiXC.C.B.N.Z.N.x.5.<.+.{ M 6 @ $     . . . + : t [ x.",
"{.[.[.[.[.[.[.[.&Xk.g i z m M { X.2.h.m.C.iXiXiXiXiXiXiXiXiXiXiXiXiXiXZ.C.C.C.B.N.Z.N.+.1 .                 . . o + : 1 h ,.m.5X",
"{.[.[.[.[.[.[.&Xi.i 1 i g m M { <.h.m.Z.Z.Z.iXiXZ.Z.C.C.C.C.C.C.C.C.C.C.C.C.C.Z.N.3.1               . . . . o + : 1 h [ h.B.&X.X",
"{.[.[.[.'.#Xk.E , : t u h m N X.5.n.Z.Z.Z.C.C.C.Z.Z.Z.Z.Z.Z.Z.Z.Z.Z.Z.Z.Z.N.x.X.1                 . . X O + : 1 h [ d.m.6X.X.X.X",
"[.[.[.'.#X@.< + : 1 t u h N [ 3.n.A.C.Z.aXaXpXZ.N.x.,.` N M N [ ,.3.3.X.m , .                 . . O + : , t v [ 5.m.8X-XXX X.X{.",
"[.[.'.$X] o + : , r u h N X.5.n.A.A.N.7X$Xu.*.K t # .   $ $                               . . O - < u W  .-.t.m.8X;XXX X.X.X{.[.",
"[.'.{.*.. + : : , r z E O.8.q.2.<.{ R b B q * * # + O . ; 2 O .         . . .         . . + + : t m :.).).2XlX,XXXXXXX.X.X{.[.[.",
"].].a.; o = = : : y Q Q ! ~ ~ T b z g i s 0 5 ; O X . . . . . . .       . . X . . . . . $ < < g X.x.3X4X4XlX>XXXXX.X.X.X{.{.[.[.",
"'.[.z o , 1 u j v N 7.^ ~ / #.R n b z 6 # o . . . . . . . . . . . . . . . . o o o O + # < i M 5.B.qX,X<X>XXXXX.X.X.X.X{.{.[.[.].",
"[.7.= 1 j N ` ,.4.4.8.%.&.;.{ Y Y z ; . . . . . . . . . . o o o o o o O O + + - : > < u n <.b.8X>X+X+XXXXX.X.X.X.X.X{.{.[.[.].].",
"[.W , v X.5.f.f.s.d.2.2.+.{ { ] g O . . . . X o o o o o O O + + # - ; : < < t i z M X.y.b.0X,X+X+X+XXX.X.X.X.X.X.X{.{.{.[.].].'.",
"].M v ,.f.n.x.h.y.y.8.1.+.o.R 6 . . o o O O O O O O + + + - ; > < t g m M { <.y.c.5X8XeX>X+X+X+XXX.X.X.X.X.X-X{.{.{.[.[.].].'.'.",
"[.3.4.n.V.x.x.h.g.t.8.+.R y O . O + + # 4 7 > - - - - ; : < t g M +.y.b.5XuXdXtX<X3X3X+X+X+X>X-X-X-X-X-X.X{.{.{.{.[.[.].].].E.'.",
"N.f.d.x.h.2.+.{ Y z y 4 2 2 4 : - : > 6 x P k 6 1 < 1 6 y g M 1.c.8XhX-XW. XlXkX+X>X>X>X>X-X-X-X-X-X$X{.{.{.{.{.[.[.].].].].'.z."
};
