/* XPM */
static char *a7781fd3ed6e42e3c3c51dfda54f9d66Jw4BQYVDtW0wJYJ0[] = {
/* columns rows colors chars-per-pixel */
"64 64 85 1 ",
"  c #020301",
". c #050B03",
"X c #071005",
"o c #091405",
"O c #0C1A07",
"+ c #091609",
"@ c #0D1D0A",
"# c #0F210C",
"$ c #112207",
"% c #12250A",
"& c #152B0B",
"* c #17330E",
"= c #19350D",
"- c #1D3A0D",
"; c #132D11",
": c #163413",
"> c #183713",
", c #1B3C12",
"< c #213E0D",
"1 c #1E4414",
"2 c #1F4915",
"3 c #1E4518",
"4 c #1F491A",
"5 c #23440E",
"6 c #26490F",
"7 c #284C0F",
"8 c #204613",
"9 c #224B15",
"0 c #224C15",
"q c #234F16",
"w c #254F14",
"e c #244F15",
"r c #294E10",
"t c #204818",
"y c #204A18",
"u c #224D1B",
"i c #224F1B",
"p c #244F18",
"a c #235016",
"s c #255014",
"d c #255317",
"f c #255417",
"g c #2A5513",
"h c #285314",
"j c #295515",
"k c #2B5815",
"l c #2B5916",
"z c #2C5915",
"x c #2D5B15",
"c c #2F5E15",
"v c #2D5F17",
"b c #23501B",
"n c #25521A",
"m c #265619",
"M c #23501C",
"N c #24531C",
"B c #25551C",
"V c #27581B",
"C c #26581C",
"Z c #285918",
"A c #2B5D18",
"S c #315D13",
"D c #305E15",
"F c #2F6117",
"G c #2E6118",
"H c #316015",
"J c #306216",
"K c #336316",
"L c #336415",
"P c #346717",
"I c #386715",
"U c #396C15",
"Y c #326518",
"T c #356B18",
"R c #386E18",
"E c #3C7216",
"W c #3F7817",
"Q c #3C7418",
"! c #3F7919",
"~ c #407617",
"^ c #427A17",
"/ c #407718",
"( c #427C18",
") c #448017",
"_ c #458219",
/* pixels */
" .+#;::>33,,,,,3>:1133,,331,113uu3333y13uyyyuuuu3uuu31y43,:;#+. ",
".+%:,>3bb33y3yy31,33y3331>>>1yyBBy3yyyyBNBBBBbBBNBBBuynuu44,:%O.",
"+%>33,3bm3133,,,1,,1113131,,9npnmp99q9qVnmnnn9mVmmnmnmmnbnnu3>%+",
"#:3uyubum11,,*,,1,,,,19111,,111q981qddaq9mmmd9fmdmmmmmmmmVBBM3:#",
";1unumqqd1q11,,,998,,1q9981=,1111,,191911qddqaqmmmmmfdmmdmqbBu1;",
">ynmmmamm9q1,,,19q3,,19qqq3,11,1,,18991991119d9dmmmmm9qmma99mmy>",
",unbddmmmdd9113q339whwdd9981181q99www99qq3189qqadqamdaqqnq99mBu,",
"3bub99fdqqaqqdqq9qdlxxJJjjq1899q99wxJx91139qqqdq91qddmf9md99nmu,",
"3BmdaqqdqmfdmmmqdmZxxFxxPJDl911q118JPPx8,,1,1qqq999qdmnqmq9qnnn1",
"yBmmfqamqfmdadq1qfZlfGlxJTRETh1q991xPTTTf1,,198119qqmmmdmaddbmn3",
"unuddammdZZfaad9djAladqlxPRQQQYjdq89TRRQRlq319,,,11,9qadddmmnnu1",
"uyq9dmmmAYvZddqalvvlfd1qfxJEQEETxdqqxTE!/Ex991,11>*=,,3q9qadq933",
"unnqmmmmYTYAd819lGxjGJJYAjjJRRUTTxfalJR(_!EFdafw9,*--=99839d9314",
"yun9fmmmYTTAmdddvAllAJJTTJxxxTPTURETTPRW_!!EYgxgd1-,18dqq11133,,",
"3333q9q9GTTGmmmGYYvAmjFTTTPJPTPTR^__/RPRQQ/QTvxxx911wlxd91,,,,,,",
"3,1qa9q3xTTxdmATTTGZvljGTPPPPEW(_____QxxPQ!/EPJJx9qdxxJj91,1,,11",
"1,9mmdaqlJPJfmFTETGfTTvvFFJPU^____^WUUJxDTQ!QQPJxdq,xJJq91,11,13",
"3unmdfmflPTTdfYTEYvYTYjqdxJU^((^RTUUURERTJR!((/UJjq,TEJ191,13133",
"3NnmqdmmjJPTdjTQQxjTJh8rxIRRPSggSSJLU^(^QRTE((_(El9qQQP1813qmp33",
"unnmqmmmmYTJhlTQUlxxSSxURULh=Oo$=6hgIW(^~!QTEW(_(T1hQQT,199189y1",
"ybqaammmaYPJxxREThJRUURUJ6&O....oO&-6SE^^//ETEW(_ExxQQJ19a91993,",
"uBn33dmmqJJJLPEEJPW^EUJ6$o.........O&=6L~((/ERUEW!TQQEd9dqq9q9,,",
"uBn91qd99xJPTRWWE^^EL5&o........ ....o&=SE(((^EEWEE((Qdqd99833,>",
"ubq93dd99jJPE(((W^Wh=O.......       ...o$7R^(((EERE__Qq31199183,",
"3bnqqdq98wTE__)WEUS=#.....            ...o-xE(_(ERE__/jq,,9d893,",
"1bndqqa1qdQ(__WLSS6&o.....             ...X%5R(_(Q(__QJf1,9a9n3,",
"3bn319q9xTWWWWDhSS-O.....               ...o=gRW(!(__EPJw1aq8nb1",
">yu111alFJREERhgJh&....                 ...X&gIRW!(__RPTxdmmaVB3",
",yq918djwxPRRRgSS5o...                   ...&gPUTE__(RPTTxfmmVNy",
",bnq319ddlRW^PSSS=X...                   ...$xLPDT(WQTTTJxddfVb3",
"3yqdq9fadT(_(LLSg$o.                     ...$SLTSxRRRxJYTJljdVBu",
",umdq9qqdR(_WTLS6OX..                    ...%SPRSxRREj9FTJxldmBu",
"3bnaq99whQ__/UUS-o...                    ...&SPUJJR^Wlq9xFlllmBu",
">yqqq1,8x/__(^Rg&o...                    ...=SPRJR(_Qq91,djjfdBy",
">yu99919J//!(_WgOo...                    ...-SUER___T11139jddnu1",
"1331918dR/QP(_(h&o...                   ...o<LR/(_^Rv8999319qny1",
"3311q99jQQUx/((J<@....                  ...O6U^_(^RIg111991q99y,",
">1,,1qjT!Qhj/(^Uh-o...                 ....$g~__WUULg,-111,13nu>",
">,99,1dQ!Q1gE/WES6-o....              ....o-E((^TUILw,,391*-3ny:",
">191=1dQWT8xTEERPh5-O.o...            ...o=I^(^RJUUR8,,9d9-1qq3>",
"139,,wJQQl9gSPTWRTg6=%Oo..........   ....-LW^EUPPE!T139991,9qpu1",
"yy1,1dT!R9hgDJJTUUJh8=%OoXX...........XX<URWRUUPQ/!Jqqqq319q39u1",
"3,,19qURx3xgxvxxxJPSx5=%OoX.........oO$6~/^EUURT((Qj13931133,133",
">:319dPJ89xxxjxxjjPTJx-=$OooXooo$&=-<5S^//RLUURR((Q9,9a111,1,133",
":>,,-dxx1dJJfgxxg1jTTJg-=%&=---<56966S^//ExxLEEE/(Ef8993q1,1,11>",
">11,*9hw,jFj8jxxw-,xPTPDr65569677rggS^~~Rr5gTEEE/!Tf9q99aq91,3y>",
",3111djw1hj89jxDh-99PRUTLSgghr7rhr9gW~WRr*-jTRREQQYmmdqmmmq119u>",
">3311dvdqdw13wwxxghhxTREEPJSxg958<9EWQEh,*8jTTTRQExmmf9qddq9qqu,",
"11139lAfawqd19wxDxxxxPEEQEJgww8998UWWEx,>,1dJJxTRTjmdd919qdaqmBy",
",,91jllqddqq8dlxJxJxxJTRTJxj81-=,SW!QJ9,,,,9xxjTPPw989q913q99puy",
">1qallldqqqqddljxJYFldjJJxjhw,,,xPEEDw1,1,=9jllTJJ9119dd9191933,",
"yu39ljdm919q99d18dV9318jJljjd19xPRUv8,,1,==1wgxPJx,,19qd911,113>",
"3u3qffdq11qq9dm9qdqdda99dlxxxq9xTTg81,,,*=-11wlJPD11,,9qa1-=,,3>",
"3u988dd3389fdmm3df9fmmdq9dlGvm1wjj,,,*=**11181wxJx19,,9991,,,13,",
"3111qmdq931a9da9ddqqddddqmmmma1199,,=*,*,11,11wllw9q91,,,,,,33,>",
"13,3dmfq9aqqqdafdq99qdddqaddmdq9qq99,,1,,1111,8991198111,,,1q3,>",
">,19df99qddmmd9mqqq9qqqdmdqq9qd99ffq3191,,=,,,198,,,,181,11,31>>",
":>3bdmdfdqddma9mqdq9qdmmmfdqqmmmdffddqq1,,==,,-1,,,*,111,1,,u3>:",
";,3bnmmaqq99dmqaqd9qmmdmmd9qammmmmmmmd91,1,*&*,111,=1,,111,33,:%",
";>,ubmmqq811qmmd99qmmdaadm913mmmdaqdmq991931,,1,,,=,131113331>:@",
"@;,uBmCnd23aq99fq9qqamdqdmd9qdaad93qmdqaqadq11131,==,13q23y3,>%O",
"X@;,uuyynunmmq9npqqqqVmpmmmnnnu9nnnVVVVVVnnnunnn9,11,,191,31:;Oo",
".o@;,333bbybBbbuuBBNbuBNNBbubbbuyBBbbBBBNynBBBBBnyy31,,y11,>;O..",
" .o@;:>>4y3y33y3yyy433y3yyy33yuuyuuyyuuuuyuuuyyuuu331,31,,:%@o. "
};
