/* XPM */
static char *ccd15bfeb8a94104924f3ff01deccf87HqiBk3k2uUo0s4FH[] = {
/* columns rows colors chars-per-pixel */
"64 64 41 1 ",
"  c #020502",
". c #050B04",
"X c #071107",
"o c #081307",
"O c #091609",
"+ c #0D1D0B",
"@ c #0F220D",
"# c #10250E",
"$ c #132C0E",
"% c #17330E",
"& c #18360F",
"* c #132D11",
"= c #163413",
"- c #183713",
"; c #1B3C12",
": c #1E4413",
"> c #1F4915",
", c #1D4419",
"< c #1E4418",
"1 c #1E4718",
"2 c #1F491A",
"3 c #204714",
"4 c #204914",
"5 c #224B15",
"6 c #234F16",
"7 c #204818",
"8 c #204A18",
"9 c #224D1B",
"0 c #224F1B",
"q c #244F18",
"w c #235016",
"e c #255317",
"r c #255417",
"t c #23501B",
"y c #25521A",
"u c #265619",
"i c #23501C",
"p c #24531C",
"a c #24551C",
"s c #27581B",
"d c #26581C",
/* pixels */
" .O@*==-<<;;;;;<-=<<<<;;<<<;<<<99<<<<8<<98889999<999<<82<;=*@O. ",
".O#=;-<tt<<8<88<<;<<5<<<<---<88pa8<8888apaaaataapaaa98y9922;=#O.",
"O#-<<;<tu<<<<;;;<;;<<:<<<<;;5yqyuq55656syuyyy5usuuyuyuuytyy9<-#O",
"@=<989t9u::;;%;;:;;;;:5:::;;:::653:6eew65uuue6rueuuuuuuuuuaai<=@",
"*<9y9u65e:6::;;;553;;:6553:&;::::;;:5:5::6ee6w6uuuuureuueu6ta9<*",
"-8yuuuwuu56:;;;:56<;&%;:66<;::;:;;;:53:55:::5e6euuuuu56uuw55uu8-",
";9yteeuuuee5::<6<<:;;&::;33::3:655::55566<:3566we6wuew66e655ua9;",
"<t9t55re66w66e665655:;<:;:::35565:&;:::::<5656e65:6eeur5ue55yu9;",
"<auew66e6ureuuu6euue66:;:;;::::6:;%;::::;;:;:6655556euu6u656yyy<",
"8auur6wu6ruewe6:6rue6e::::;5:::555:;:<;5::;;:53::566uuueuweewuy<",
"9y9eewuueuurwwe56eue6e:5:5<6wu6we63:6<:5665<<5;;;::;56weeeuuyy9<",
"9865euuuuuuuee6weeuee5:6555weu65ee65e636e6655:;-;-%&;;<656we65<<",
"9yy6uuuuuuuue3:5euw5e65e66:65<::5:6665<eu6eeew5:;;%;;&353<5e5<<2",
"89y5ruuuuuuuuee6ewweu65eer6566<<::66:;:555euee6:::;;;;:36:;:<<;;",
"<<<<6565eeeuuuuuueuuu66u6reeuu655666:;;;:5ru553665::3::55:;;;;;<",
"<;<6w56<6665euuuuuuuu55uee6666:;:5:55::;:56e666u656e6<:55:;:;;<<",
"<;5uuew66<56ruue6eueueeuuuw:<ue5ee555:5<:<556e6e6e6;55::5:;::;<<",
"<9yueuurw566weu556uuuerurue:5euue6665:5w5:66uu66566;5e<:5:;:<<<<",
"<pyu6euue5:556u63<wuu66w6uw55wuue5ruu55ue56ure5::<5355<:3:<6uq<<",
"9yyu6uuuu6<::56e5:e6566e6e6ee6eue6ree65er56uuw5:3<::<56;:55:358<",
"8t6wwuuuwe3<:5eeeew5:556<6eer6uu6eueue6u6:<uuuw665:::66:565:55<;",
"9ay<<euu6e6556eeuuw665eueeuuu5ee6uueuuue556ue55ww53::::5e66565;;",
"9ay5:6e55e65666eue6e<<eewuueu:563uuuruuewrue655eu6;;<656e553<<;-",
"9t65<ee55665655eeuue65555<;:55<::wrue6uuweeuee55ew:5:65<::55:3<;",
"<ty66e653:655<:6wuruu6<:55::5e<<366w65uuuue66e6<6w555e65;;5e35<;",
"<tye66w:65>::::6u66uue:;<wuuee66euee6:eeeue66rr56rw66656:;5w5y<;",
"<ty<:565e655:56663:6uw3:6e5ee6euuee656e63<566uu6wu65:35e3;663yt<",
"-89:::ww6665<6e6:556u6:<:5:5566ruu555566<5566eueuu65666u66uuwsa<",
";865:3e6;:<::6e6::5565:3<::55wweuu5:5:6e<666e6ruuur6666rewruusp8",
";ty6<:56:56655ur:;:5e6:356:55e65356:w<6e::666eueeuu66uue5::erst<",
"<85e55rw<eyu55e656e::5;;:<:::;::::5<e6re5:6e656555666we6e55eesa9",
"<9ue6566:5:6356:euue65:655:;;-:66:::<55555555:<65::;:556u5:6wua9",
"<9yw655::::re55:uueu6656565:;;56:;;;:3:555::5::5w55;:5655<56eya9",
";8666:;;<63er656e5566636eeu:;&;;:::35<:5<:3566655we6555:;:6556a8",
"-89555:;::;::5we55<665:eu6e5:;;;:5666655:::5666:55565:::<565599<",
";<<:5:;:;;;;&:5566::353e6:ee5:::3<565:5663:5ew66u6:5::555<:<6y8;",
"<<<:65;:;::;;:::56:;:655<6rre655:;5e6::3<:::6w6ere3:::::55:6558;",
"-<;;:5666:;;::;;;;%&:666<:5665er6::55::<::::556ee65<5;&:::;:<y9-",
"-;55;;:e65;;::;;;;&;:;<53:<65:56u6eee655w6:565566:::<;;<5:%&<y8-",
"-<5:&&;<:5:;;;;;;;;::;::::;<5:56e6666655er5556<::;:::;;5e5&:66<-",
"<<5;;:5555:&$&:3:;;;<:353:&:6e:5666:<6weewe5:::::;5::<555:;56q8<",
"88<;::565:;;-&;;;;%$;;;53:<<::3:::5::5reu5<:;;:6:;556666::56:59<",
"<;;:5::::<;;;;&;::;%::;;:::;;;3:&&::<6wwe656<:6re5:::<5<::<<;<<<",
"-=<:55:;&::::;&;:::::::;;&;&;::;%;::<:56e5<655eee6<:;5w:::;:;<<<",
"=-;;;<:<;:556:;;;;;:5;;<;%;;:<:&-::5:&&5w::5<eeeeere553<6:;:;<<-",
"-<<;%:;:;:5;::;;%%;;;;;:&&&:5<;;;;:::%$&5:;5:6euuuee5635w66:;<8-",
";<<::<::::;;5:;:;%&;&-;;;;;::::;3:;::;;::&;<:556u66uue6uuu6::69-",
"-<<:::e655<:<:;;;&;&;;&;;;;::;&;6:;<:565<;:35::5e<6uur56ee65669;",
"<<<:<6uew66e:;;;&;5:;;;;::;&&;%;:;:<:::;;;;<5:;:::5uee5:56ew6ua8",
";;5:6ee6ee6635<:::5:::::::;;;:;&;%;:;::;;;;:::;:;;353565:<655q98",
"-;6wewee6666ew5::6e65::5:&;;:;;;%&%;;::::;&:::::%;:::5ee5:5:5<<;",
"89<5e66u5:56556::6u5<::5<;:;;:55:&%&;;::;&&;;:3:;;;;;56e5::;:<<-",
"<9<<66e6::665eu56e6eew553<5<555::;%&;;;;%&;:::::::::;;56w<&&;;<-",
"<95<:ee<<35reuu<ee5ruue656eruu:;<:%;;%&%%:::3::;;::5;;555:;;;<<;",
"<<<:6ue65<:w5ew5ee66eeee6uuuuw::53;;&%;%;::;:::;-:565:;;;;;;<<;-",
"<<;<eur656666ewre6556eee6weeue656655;;:;;::::;;&&;:55:::;;;:6<;-",
"-;;6er556eeuue5u6665666eue6656e55ur6<:5:;;&;;;;;;;;;;:3:;::;<:;-",
"=-<teuere6eeuw5u6e656euuure66uuueuree66:;;&&;;;;;;;%;:::;<;;5<-=",
"*;<tyuuw6655eu6w6e56uueuue56wuuuuuuuue5:;:;%$%;:::;&:;;::<;<<;=#",
"*-;9tuu663::6uue556uuewweu5:<uuuew6eu655:3<:;;:;;;&;:::::<<<<-=+",
"+*;9audye><w655r6566wue6eue56ewwe5<6ue6w6we6:::<:;&&;:<6><8<;-$+",
"X+*;9988y9yuu65y96666suquuuyyy95yyyssssssyyy9yyy5;<<;;<5:;<:=*+o",
".o+*;<<<tt8tatt99aapt9appat9ttt98aattaaap8paaaaay88<<;;8<<;-*+..",
" .o+$=--28<8<<8<<882<<8<888<<899899889999899988999<<:;<<;;=$+o. "
};
