/* XPM */
static char *b52caa811b734668c30d039d3f241192dJPncufJrPSDdJ6S[] = {
/* columns rows colors chars-per-pixel */
"64 64 141 2 ",
"   c #010201",
".  c #050B04",
"X  c #0A0B0A",
"o  c #071106",
"O  c #091306",
"+  c #0B1907",
"@  c #0A1509",
"#  c #0D1D0A",
"$  c #111B0E",
"%  c #131313",
"&  c #161C14",
"*  c #181A17",
"=  c #1B1B1B",
"-  c #0E210A",
";  c #10260D",
":  c #132C0D",
">  c #17330E",
",  c #18360F",
"<  c #162512",
"1  c #132D11",
"2  c #163413",
"3  c #183713",
"4  c #1B3C12",
"5  c #222322",
"6  c #242C22",
"7  c #2B2B2A",
"8  c #263622",
"9  c #2F3F2A",
"0  c #353535",
"q  c #3B3B3B",
"w  c #1E4414",
"e  c #1F4915",
"r  c #1E4518",
"t  c #1F491A",
"y  c #204714",
"u  c #214C15",
"i  c #25471C",
"p  c #214C1A",
"a  c #284A1E",
"s  c #245117",
"d  c #255317",
"f  c #255417",
"g  c #23501B",
"h  c #26521A",
"j  c #275619",
"k  c #23501C",
"l  c #24531C",
"z  c #25551C",
"x  c #2A551E",
"c  c #27581B",
"v  c #26581C",
"b  c #2E4A26",
"n  c #2F422A",
"m  c #304529",
"M  c #334D2B",
"N  c #2C5221",
"B  c #2D5821",
"V  c #325A27",
"C  c #385530",
"Z  c #3D5536",
"A  c #3C5F32",
"S  c #3D5B35",
"D  c #425D3A",
"F  c #416936",
"G  c #446839",
"H  c #496B3E",
"J  c gray28",
"K  c #4A4A4A",
"L  c #4A5D44",
"P  c #555555",
"I  c #585857",
"U  c #4C6545",
"Y  c #4B6A43",
"T  c #4E6048",
"R  c #516E48",
"E  c #536C4C",
"W  c #4C7041",
"Q  c #54764A",
"!  c #55724D",
"~  c #58774F",
"^  c #5B7354",
"/  c #5D7B53",
"(  c #606B5D",
")  c #627B5B",
"_  c #636563",
"`  c DimGray",
"'  c #677F61",
"]  c #6B7D66",
"[  c #6D7F68",
"{  c #737473",
"}  c #7F7F7E",
"|  c #6B8663",
" . c #6C8366",
".. c #6F836A",
"X. c #73846E",
"o. c #758A6E",
"O. c #778A71",
"+. c #7C8B78",
"@. c #789071",
"#. c #7B9175",
"$. c #7F9179",
"%. c #818F7D",
"&. c #82927D",
"*. c #808180",
"=. c #848E81",
"-. c #8D8E8D",
";. c #869581",
":. c #889584",
">. c #8B9986",
",. c #8F9C8C",
"<. c #919D8D",
"1. c #959594",
"2. c #9F9F9F",
"3. c #96A193",
"4. c #98A595",
"5. c #9DA49C",
"6. c #9EA89B",
"7. c #A0A79E",
"8. c #A1AA9E",
"9. c #A3A4A3",
"0. c #A3AEA0",
"q. c #A4ACA2",
"w. c #A5AFA3",
"e. c #A8A9A7",
"r. c #ACADAC",
"t. c #A9B2A7",
"y. c #AAB2A8",
"u. c #ACB3AA",
"i. c #ACB4AA",
"p. c #B0B5AE",
"a. c #B2B6B1",
"s. c #B1B8B0",
"d. c #B6BAB5",
"f. c #B8BCB6",
"g. c #B9BDB8",
"h. c #BBBDBA",
"j. c #BEC1BE",
"k. c #C0C2BF",
"l. c #C5C6C5",
"z. c #C7C8C7",
"x. c #C8C8C8",
/* pixels */
"  . @ - 1 2 2 3 r r 4 4 4 4 4 r 3 2 r r t r 4 4 r r r 4 r r t p p r r r r p r r p p p p p p p p r p p p r r p t r 4 2 1 - @ .   ",
". @ ; 2 4 3 r g g t t u t u p t r 4 t t p t t t 4 4 3 3 r p p z z p t p p p p z l z z z z g z z l z z z p p h p p t t 4 2 ; + . ",
"@ ; 3 r r 4 t g j t r t t 4 4 4 r 4 4 r r r t r t w 3 4 u h p h j p u u u u u c h j h h h u j c j j h c h j j h g h h p r 3 ; @ ",
"- 2 r p p p g p j w w 4 4 > 4 4 w 4 4 4 4 w u w w w 4 4 w w w u u y w u s s s u u j j j s u f j s j j j j j j j j c z z k r 2 - ",
"1 r p h p j u u s w u w w 4 4 4 u u y 4 4 w u u u y w , 4 w w w w 4 4 w u w y w w u s s u s u j j j j j f s j j s j u g z p r 1 ",
"3 p h j j j s j j u u w 4 4 4 w u u t 4 4 > 4 w u u t 4 4 w 4 w 4 4 4 w u u w u u w w w u s u s j j j j j u u j j s u u j j p 3 ",
"4 p h g s s j j j s s u w w t u w w w 4 4 , w w 4 y y w w y w u u u w w u u y u u t w y u u u s s u s j s s u u s u u u j z p 4 ",
"r g p g u u f f u u s u u s u u y u u u t 4 w w 4 w w w y u u u u w , 4 w w w w w t u u u u s u u w u s s j f u j s u u h j p 4 ",
"r z j s s u u s u j f s j j j u s j j s u s w 4 w 4 4 w w w w u w 4 > 4 w w w w 4 4 w 4 w u u u u u u u s j j u f u u u h h h 4 ",
"p z j j f u s j u f j s s s u w u f j s u f w w w w 4 u w w w u u u w 4 w t 4 u w w 4 4 w u y w w u u u j j j s f s s s s j h r ",
"p h p s s s j j s j j f s s s u u s j s s s w u w u t u s j u s s u y w u t w u u u u t t u 4 4 4 w w 4 u u s s s s j j h h p r ",
"p p u u s j j j j j j j s s u s s s j s s u w u u y u s s j u u s s u u s u y u s u u u u w 4 4 4 4 > , 4 4 t u u u s s u u t t ",
"p h h u j j j j j j j j s y w u s j s u s u u s u u w u u t w w u w u u s u t s f u s s s s u w 4 4 > 4 4 , y u y t u s u t r t ",
"p p h u f j j j j j j j j s s u s s s s j u u s s f u u u u t t w w u u w 4 w u u u s j s s u w w w 4 4 w 4 w y u w w w t t 4 4 ",
"r t t t u u u u s s s j j j j j j s j j j u u j u f s s j j u u y u u u w 4 4 4 w u f j u u u u u u w t y w w u u w 4 4 4 4 4 4 ",
"r 4 r u s u u t u u u u s j j j j j j j j u u j s s u u u u w 4 w u w u u w w 4 w u u s u u u j u u u s u w w u u w 4 w 4 4 r r ",
"r 4 u j j s s u u t u u f j j f u j j s j s s j j j s w t j s u s s u u u w u t w t u u s s u s u s u 4 u u w w u w 4 4 4 4 r t ",
"r p h j s f j f s u u u s f j u w u j j j s f j f j s w u s j j f s u u u w u s u u u f j j u s u u u 4 u s t w u w 4 w t r r r ",
"r l h j u s j f s u w u u w # # + u s j j u u s u j x A R ~ Q F B u f j j u u j f s # y , + u u w t y y u u t w y w w u j p t r ",
"p h h j u j j j f u t w 4 .   o 4 > ; C o.4.y.g.f.s.w.0.w.t.i.0.#.o.| / W N u f 4 w   : >   u O : t w w w u s 4 w u u w y u p r ",
"p g u s s j j j s s u w .   . o . X X 9.l.x.x.x.x.x.l.k.g.p.y.f.g.g.d.t.4.&.H : # +   o #   4   # 4 w w w u u w u s u w u y t 4 ",
"p z h t t s j j u s u           .   0 x.x.x.x.x.x.x.x.x.x.x.x.x.x.x.x.x.l.j.w.>.6 .     .     ; u s u w 4 w w u s u u u u u 4 4 ",
"p z h u w u s u u s u .     . .   * 2.x.x.x.x.x.x.x.x.x.x.x.x.x.x.x.x.x.x.x.x.x.7 X .         ; w u 4 w t u u u s u u u t t 4 3 ",
"p g u u t s s u u u :       .   = -.x.x.x.x.x.x.x.x.x.x.x.x.x.x.x.x.x.x.x.x.x.x.P .           . u s w y w u u t w w u u w y t 4 ",
"r g h u u s u u y t < * q 5 7 { l.x.x.x.x.x.x.x.x.x.x.x.x.x.x.x.x.x.x.x.x.x.x.x.g..     .   4 t u s u u u s u u 4 4 u s y u t 4 ",
"r g h s u u s w u u Y d.x.x.x.x.x.x.x.x.x.x.x.x.x.x.x.x.x.x.x.x.x.x.x.x.x.x.x.x.x..         L 7.i.g.8.& N u u u w 4 u s u h t 4 ",
"r g h t w u u u j u $.l.x.x.x.x.x.x.x.x.x.x.x.x.x.x.x.x.x.x.x.x.x.x.x.x.x.x.x.x.x..         X p.K g.s.  _ &.! h y w s u y h g r ",
"3 p p w w w s s u V s.x.x.x.x.x.x.x.x.x.x.x.x.x.x.x.x.x.x.x.x.x.x.x.x.x.x.x.x.x.x..           = = d.P   I l.j.@.u u j j s c z r ",
"4 p u u w y s u 4 ..l.x.x.x.x.x.x.x.x.x.x.x.x.x.x.x.x.x.x.x.x.x.x.x.x.x.x.x.x.x.x.            0 = d.=   a.l.l.l.G s f j j c l p ",
"4 g h u t w u u w <.x.x.x.x.x.x.x.x.x.x.x.x.x.x.x.x.x.x.x.x.x.x.x.x.x.x.x.x.x.x.x.X           1.= l.9.-.l.l.l.l.i.a w s f c g r ",
"r p u s u u f s t j.x.x.x.x.x.x.x.x.x.x.x.x.x.x.x.x.x.x.x.x.x.x.x.x.x.x.x.x.x.x.x.X           l.l.l.l.l.l.l.l.z.d. .u s s c z p ",
"r p j s u u u N g.x.x.x.x.x.x.x.x.x.x.x.x.x.x.x.x.x.x.x.x.x.x.x.x.x.x.x.x.x.x.x.x.X           l.l.l.l.l.l.l.z.l.g.6 w u s j z p ",
"r g h s u u u g.x.x.x.x.x.x.x.x.x.x.x.x.x.x.x.x.x.x.x.x.x.x.x.x.x.x.x.x.x.x.x.x.x.X           g.l.l.l.l.l.l.l.j.r.  9 u s h z p ",
"4 p u u u w 4 ] l.z.x.x.x.x.x.x.x.x.x.x.x.x.x.x.x.x.x.x.x.x.x.x.x.x.x.x.x.x.x.x.x.X           g.j.l.l.l.l.l.l.l._   * u u u z p ",
"3 p p u u u w 4 j.l.x.x.x.x.x.x.x.x.x.x.x.x.x.x.x.x.x.x.x.x.x.x.x.x.x.x.x.x.x.x.x.X           g.9.l.l.l.z.l.x.l.1.  & u u p p r ",
"4 t t w u w 4 w [ g.x.x.x.x.x.x.x.x.x.x.x.x.x.x.x.x.x.x.x.x.x.x.x.x.x.x.x.x.x.x.x.X           {   g.l.l.x.l.l.z.l.X n t u h p 4 ",
"r t r w u u 4 w U d.x.x.x.x.x.x.x.x.x.x.x.x.x.x.x.x.x.x.x.x.x.x.x.x.x.x.x.x.x.x.x..         X }   g.2.q l.x.l.l.d.( y u u u p 4 ",
"3 r 4 4 w u u u h s.x.x.x.x.x.x.x.x.x.x.x.x.x.x.x.x.x.x.x.x.x.x.x.x.x.x.x.x.x.x.9.X         K 5.q l.q . x.l.l.d.6.S 4 w t h p 3 ",
"3 4 u y 4 4 w s s y.x.x.x.x.x.x.x.x.x.x.x.x.x.x.x.x.x.x.x.x.x.x.x.x.x.x.x.x.x.x._           *.j.l.l.5 % l.g.d.;.^ y > 4 t h p 3 ",
"3 r u w , , 4 t w ' e.-.1.l.x.x.x.x.x.x.x.x.x.x.x.x.x.x.x.x.x.x.x.x.x.x.x.x.x.x.K           -.4.g.w.7 K w.+.S x s u 4 w u u t 3 ",
"r t u 4 4 w y u u 4 = X . = ` l.x.x.x.x.x.x.x.x.x.x.x.x.x.x.x.x.x.x.x.x.x.x.x.x.X           8 &.7.3.) N w t y y u w 4 u u p p r ",
"p p r 4 w w u u u - . . . . . 7 g.x.x.x.x.x.x.x.x.x.x.x.x.x.x.x.x.x.x.x.x.x.x.l.          @ y s w 4 u u u u u u w w u u w u p r ",
"r 4 4 w u w w w w > +       X . q x.x.x.x.x.x.x.x.x.x.x.x.x.x.x.x.x.x.x.x.x.x.J           o w s s u w w w t u t w w t t 4 r t r ",
"3 2 t w u u w 4 , w 4 o       . . 1.x.x.x.x.x.x.x.x.x.x.x.x.x.x.x.l.k.g.l.l.u..           4 4 ; u u t w 4 u s w w w 4 w 4 r t r ",
"2 3 4 4 4 t w t 4 w s + 3     . . % g.l.x.x.x.x.x.x.x.x.x.x.l.l.l.g.g.u.6.5.=.X $               u s f s u u u t u w 4 w 4 r r 3 ",
"3 r r 4 > w 4 w 4 w u 4 w         X 7.p.u.j.x.x.x.x.x.l.d.u.y.7.:.&.:.,.X.T m : y + # . # - w + u j s s u u u u s u u w 4 t p 3 ",
"4 r r w w t w w w w 4 4 4 : o ; O O b M b Z X.3.w.w.%.<.<.:.&.%.O.E i w w 4 4 u u : : - : - , 4 j u u j j s u j j j u w w u p 3 ",
"3 t t w w w s u y y t w t w > 4 > 4 4 4 4 4 , ^ U D D D N 4 , 4 u w 4 t w u u u u w 4 > 4 4 w u s w u j j f u u s s u u u u p 4 ",
"r r r w t u j s s u u s w 4 4 4 4 w y w 4 4 4 4 w w 4 , , 4 > 4 w 4 w t w w w 4 4 4 4 w u w 4 w w w u j s s u w u u s s u j z p ",
"4 4 u w u s s u s s u u y u t w w w y w w w w w w w 4 4 4 w 4 , 4 > 4 w 4 w w 4 4 4 4 w w w 4 w 4 4 y u y u u u w t s u u p p p ",
"4 4 u s s s s s u u u u s s u w w u s u u w w u w , 4 4 w 4 4 4 > , > 4 4 w w w w 4 , w w w w w > 4 w w w u s s y w y w u t t 4 ",
"y p t u s u u j u w u s u u u w w u j u t w w u t 4 w 4 4 w y y w , > , 4 4 w w 4 , , 4 4 w y w 4 4 4 4 w u u s u w w 4 w r t 3 ",
"t p w t u u s u w w u u u s j u u s u s s s u u y t u t u u u w w 4 > , 4 4 4 4 > , 4 w w w w w w w w w 4 4 u u u w 4 , 4 4 r 3 ",
"r p u t w s s t t y u f s j j t s f u f j f s u u u s f j j w 4 t w > 4 4 > , > > w w w y w w 4 w w w u w 4 u u u w 4 4 4 r t 4 ",
"t r r w u j s u u t w u u s s u s s u u s s s s u j j j j s w w u y 4 4 , > 4 > 4 w w 4 w w w 4 4 w u u y w 4 4 4 4 4 4 t t 4 3 ",
"r t 4 t s j f u u u u u u s s f s u u u u s s s u s s s j s u u u u u u 4 4 w 4 4 w w w w 4 4 , , 4 w u y w w w 4 4 4 w u t 4 3 ",
"3 4 w u s f u u u s s j j s u j u u u u u u u s j s u u u u s u u f f u t w u w 4 4 , 4 4 4 4 4 4 4 4 4 4 w u w 4 w w 4 t w 4 3 ",
"2 3 t g s j s f s u s s j s u j u s u u u s j j j f s u u j j j s j f s s u u w 4 4 , , 4 4 4 4 4 4 4 > 4 w w w 4 t 4 4 u t 3 2 ",
"1 4 t p h j j s u u u u s j u s u f u u j j s j j s u u s j j j j j j j j s u w 4 w 4 > : > 4 w w w 4 , w 4 4 w w w 4 w t 4 2 ; ",
"1 3 4 p g j j u u y w w u j j s u u u j j s s s s j u w t j j j s s u s j u u u w u t w 4 4 w 4 4 4 , 4 w w w w w w w t r 3 2 # ",
"# 1 4 p z j v h s e t s u u u f s u u u s j s u s j s u u s s s s u t u j s u s u s s u w w w t w 4 , , 4 w t u e t p t 4 3 : # ",
"o # 1 4 p p p p h p h j j u u h p u u u u c c h j j j h h h p u h h h c c c c c c h h h p h h h u 4 r r 4 4 r y r 4 t w 2 1 # o ",
". O # 1 4 t r r g g p g z g g p p z z l g p z z l z g p g g g p p z z g g z z z l p h z z z z z h p p t r 4 4 p r r 4 3 1 # . . ",
"  . o # 1 2 3 3 t p r p r r p r p p p t r r p r p p p r r p p p p p p p p p p p p p p p p p p p p p r r w 4 r r 4 4 2 : # o .   "
};
