/* XPM */
static char *c7d6d2966a53430caf35fc3249c90e01O99t3O4ir3zyBPRk[] = {
/* columns rows colors chars-per-pixel */
"64 64 207 2 ",
"   c #2B6CDF",
".  c #336DDD",
"X  c #386DDB",
"o  c #2773DF",
"O  c #2A75DE",
"+  c #2A7CDB",
"@  c #3B76D7",
"#  c #367CD6",
"$  c #3C7BD5",
"%  c #3374DC",
"&  c #3974D9",
"*  c #357ADB",
"=  c #3A7BDA",
"-  c #1E4FEE",
";  c #1F5DE7",
":  c #1E51EE",
">  c #1F4FF0",
",  c #1F50F0",
"<  c #2154EE",
"1  c #235CEB",
"2  c #285FEE",
"3  c #2254F0",
"4  c #255AF0",
"5  c #2464E6",
"6  c #2B65E4",
"7  c #266CE3",
"8  c #296EE2",
"9  c #2562E9",
"0  c #2965EC",
"q  c #2B6CEA",
"w  c #3166E1",
"e  c #306BE0",
"r  c #316DEE",
"t  c #2771E1",
"y  c #2B73E3",
"u  c #2C7BE3",
"i  c #2D73EA",
"p  c #2E7BE9",
"a  c #3176E4",
"s  c #327CE3",
"d  c #3275EA",
"f  c #347BE9",
"g  c #3A7DED",
"h  c #2B63F2",
"j  c #2B6BF2",
"k  c #326BF1",
"l  c #3674F2",
"z  c #3D76F4",
"x  c #317CF2",
"c  c #3F7FF5",
"v  c #457FCF",
"b  c #497FCD",
"n  c #427DD2",
"m  c #407FD8",
"M  c #427FF5",
"N  c #2B81DA",
"B  c #2F88DE",
"V  c #3D80D4",
"C  c #3285DD",
"Z  c #3C83DC",
"A  c #338ADE",
"S  c #3C89DE",
"D  c #2E83E2",
"F  c #2F88E0",
"G  c #2F82EA",
"H  c #3383E3",
"J  c #3A85E3",
"K  c #338BE3",
"L  c #3B8BE3",
"P  c #3384EA",
"I  c #3C84EB",
"U  c #358BEA",
"Y  c #3C8DEB",
"T  c #3592E6",
"R  c #3D93E5",
"E  c #3693E9",
"W  c #3B94EB",
"Q  c #3B9BED",
"!  c #3386F1",
"~  c #3885F4",
"^  c #368BF2",
"/  c #3B8DF5",
"(  c #3680F9",
")  c #3791F1",
"_  c #3A94F3",
"`  c #3D9CF2",
"'  c #3E93FA",
"]  c #3EA2EF",
"[  c #3EA1F1",
"{  c #3FA3F4",
"}  c #3EA2F3",
"|  c #3FA0F8",
" . c #4F83C6",
".. c #4682CE",
"X. c #4C84CC",
"o. c #4D88CE",
"O. c #5185C7",
"+. c #5187C9",
"@. c #538ACB",
"#. c #4483D3",
"$. c #4985D1",
"%. c #4689D5",
"&. c #4B8AD4",
"*. c #4483D8",
"=. c #4285DA",
"-. c #438BDC",
";. c #4A8DDA",
":. c #528ED2",
">. c #4E91D7",
",. c #4690DE",
"<. c #4C93DF",
"1. c #4D93DB",
"2. c #5492D4",
"3. c #5A96D5",
"4. c #5A9AD7",
"5. c #5295DB",
"6. c #5996D8",
"7. c #5398DE",
"8. c #559ADC",
"9. c #5A9CDC",
"0. c #5CA1DE",
"q. c #428CE3",
"w. c #4186EE",
"e. c #438DEC",
"r. c #4493E4",
"t. c #4B95E3",
"y. c #449BE6",
"u. c #4D9BE7",
"i. c #4C9AE4",
"p. c #4493EB",
"a. c #4996EB",
"s. c #439AEE",
"d. c #459BEC",
"f. c #4C9CEC",
"g. c #539CE2",
"h. c #5B9DE3",
"j. c #529EEC",
"k. c #599EE9",
"l. c #4380F5",
"z. c #468AF2",
"x. c #498AF5",
"c. c #4393F2",
"v. c #4C92F2",
"b. c #439EF1",
"n. c #4C9BF5",
"m. c #429CF9",
"M. c #4293FA",
"N. c #5296F5",
"B. c #509AF3",
"V. c #5699F9",
"C. c #589DFA",
"Z. c #4AA0E7",
"A. c #43A1ED",
"S. c #4CA2EC",
"D. c #54A1E7",
"F. c #56A1E5",
"G. c #5AA3E3",
"H. c #5FA8E4",
"J. c #53A4EC",
"K. c #5AA6E9",
"L. c #54A9EF",
"P. c #54A9ED",
"I. c #5CACEC",
"U. c #5DB1EF",
"Y. c #41A7F5",
"T. c #41A4F5",
"R. c #43A3F4",
"E. c #4BA3F0",
"W. c #4CA7F2",
"Q. c #4CA5F2",
"!. c #43A9F7",
"~. c #46AAF6",
"^. c #4AAAF5",
"/. c #4CABF4",
"(. c #41A5F9",
"). c #42A2F9",
"_. c #4EA7FB",
"`. c #43A9F9",
"'. c #44AAFA",
"]. c #46ABFA",
"[. c #4AA8FB",
"{. c #54A4F2",
"}. c #54A8F0",
"|. c #54AAF2",
" X c #5AACF2",
".X c #55A4FB",
"XX c #4FB0F7",
"oX c #4AB0F6",
"OX c #46B0F8",
"+X c #55B1F6",
"@X c #56B0F3",
"#X c #5CB2F3",
"$X c #5FB8F7",
"%X c #5FB9F6",
"&X c #50B3F8",
"*X c #61A6E2",
"=X c #62ABE5",
"-X c #61ACEA",
";X c #65B2EC",
":X c #69B6ED",
">X c #63A8F5",
",X c #63AFF8",
"<X c #63B5F3",
"1X c #6AB7F3",
"2X c #64BAF5",
"3X c #6ABCF4",
"4X c #66B2F8",
/* pixels */
"N N N N N + + + + + + + + + u u u u p i i i d f f P Y p.f.}.2X<XK.7.%.n n n $ & % % O 8 y p P ! ) ).'.T.` W T K N N N N N N N N ",
"N N N N N + + + + + + + + + y y y y i q q i i d f P Y p.S.|.$X#XD.<.*.$ $ = % % %   8 8 y p P ! ' (.'.{ Q W T C N N N N N N N N ",
"N N N N + + + + + + + + + O y t i i q q q i i p P U Y s.E.+X#XL.i.q.= & % % % O 8 8 8 8 p f ! ^ ` `.`.[ Q E K B N N N N N N N N ",
"N N N N + + + + + + + + O O y t 8 q q q i i p f P U W s.Q.+X|.S.y.J * % % O 8 8 8 8 8 i p P ! ) | `.T.[ W T K B N N N N N N N N ",
"N N N N N N N + + + + + O O t 8 8 8 i i i p p P U U W d.^.XXW.d.Y J % O t 8 8 8 8 8 7 i p P ! _ (.`.[ Q E T K B N N N N N N N N ",
"N N N N N N N + + + + O O t 8 8 8 i y u u p P P U E Q R.^.^.R.W Y s y 8 8 8 8 8 8 8 y p G ! ^ ` `.T.[ W T K B B N N N N N N N N ",
"N N N N N N N N + + + O O t t t y y u p H P P U E W Q R.^.R.Q Y U u t 8 8 8 8 8 8 t u p G ! ) { !.} Q E T K B N + + + N N N N N ",
"B B B N B B N N + + O O t y O O u u u H H U U E W Q R.~.!.b.W U H u t 8 8 8 8 8 t y p G P ^ ` T.T.] W T K B N N + + N N B C C B ",
"D N N D N D C H H s u u u u u O s s H H K Y W W Q R.R.~.R.` W U s u t t t 8 8 t y p G P P ) ` T.[ Q E T K B + + + N C C C C C C ",
"+ + u u u u D H H H s s s s s * H H J L L W Q d.R.R.~.!.b.W U P p y t 8 8 8 t y u p G P U _ [ [ Q W T K B N + + N C A A C C C + ",
"O O O y y u u u s s H H H H H H J J L L R W d.R.R.~.~.R.` W U P p y t t t t y u u G G P ) ` [ Q E T K F N + + N K L S C Z * * O ",
"O O 8 8 8 8 t y u * * Z J J J J L L L R r.d.A.Q.^./.~.R.` W U P p u y t t y u u G G P U Q [ Q W T K K N + + N K L S Z Z # * * O ",
"O 8 8 7 7 7 7 8 O % * = Z Z J J L L L r.y.d.S.Q././.!.R.Q W U P p u u y y u u u D G P E Q Q W E K K B + + + L L S Z # # # * % % ",
"6 6 6 9 9 9 9 5 8   % * = Z Z J S S S r.y.y.S.W././.Q.b.s.W U U H p p u u u p D D G U W Q W E K K F + + u J L Z V $ $ $ # % % . ",
"w 6 6 6 1 1 1 1 9 6 . % = = Z Z Z S -.-.r.i.S.S.W.W.Q.R.b.W Y U P H D p p u D D G P T Q W T K K F + + O J q.Z $ $ $ $ @ % X X . ",
"% % . 8 8 5 5 5 5 6 e . & & = = Z Z =.-.r.t.u.S.S.W.W.E.d.p.W Y U H P H D D D D P U E E T K K F + + O H e.Z $ $ $ $ @ & X X X X ",
"$ & % % t 8 8 7 8 8 % % & = = = = = =.=.-.t.i.u.S.S.}.W.E.d.p.W Y J K H P P D D K T E T K K F D + o s e.Z $ $ $ $ & X X & @ @ $ ",
"$ $ $ * O t t 8 8 O % * $ $ #.*.Z Z =.=.;.<.i.i.u.S.J.}.W.f.d.p.W Y L K K P D P K T T K K F D u o i e.=.$ $ $ @ & X X & $ $ $ n ",
"#.#.$ * * O t t t O % * $ #.#.=.=.=.=.-.;.>.1.i.i.D.J.L.}.}.f.d.p.W R L K P F K K T K K F D u t 8 e.r.V $ $ $ @ & & @ $ $ n #...",
"....V $ * O t t t t O * $ #.$.$.%.=.=.-.;.;.>.1.i.g.D.L. X}.J.f.d.p.W R K P F K K K K F D u t 7 I t.#.$ $ $ @ @ @ $ $ $ $ #.....",
"....#.V $ * O t t t O * $ #.$.$.%.%.=.=.-.%.&.>.5.g.D.K. X X}.J.S.d.p.R K K K K K K F D u y 7 d a.=.#.n n n @ n n n n n n #.....",
"X.X...#.V * O t t t O * = #.$.$.$.%.%.%.-.%.%.&.>.7.D.K.I.#X X}.S.d.d.R K K K K H F D u y 7 q v.;.v #.n n n n n n #.#.#.#.#.....",
"X.X.X...#.= * u t t t % = $ $.$.o.$.%.%.%.%.%.%.>.5.g.G.I.<X2X XP.S.d.R L K F F B N + y 7 9 z.t.....#.n n n n ............#...X.",
"X.X.X.X.#.V * O t 8 t O * $ #.X.o.o.$.%.%.%.%.$.&.5.8.G.I.<X2X#XL.S.d.R K H B N N + y 8 9 l g.......v n n ......................",
"X.X.X.X...#.Z * t 8 8 t % $ #.$.X.o.$.$.$.#.#.$.$.&.8.G.I.;X2X2X|.S.d.R K B N N + y t 9 0 B.&.......b b ....X.X.X.X.X.X.........",
"..X.X.X.X.$.Z * u t 8 t O = n #.X.o.o.$.$.#.#.#.#.%.5.8.K.-X2X2X#XJ.d.R K N N + + t 7 1 z.5.X...........X.X.X.X.X.X.X.X.........",
"..X.X.X.X.X.=.Z s t 8 8 y % $ #.X.X.X.X.$.$.#.#.#.$.&.7.G.I.<X2X#XP.S.R C + + + t 7 1 l k.....X.X.X.X.X.X.X.o.:.:.2.2.&.&.X.X...",
"....X. .X.X.$.Z * u 7 8 8 % = n X.X.X.X.X.$.#.#.#.#.%.>.g.G.U.2X#XP.Z.R B + + y 8 1 4 B.:.X.X.X.X.+.+.+.@.2.4.0.0.G.0.9.8.6.:.X.",
":.X...X.X.X.$.#.Z s i 8 8 O % $ #.X.X.X.X.....#.#.n #.;.5.D.I.2X$X|.S.R N + O 8 5 : c 9.X.X.+.+.+.+.+.2.9.=X;X:X:X:X;X-X=XG.9.6.",
"9.2.&.X.X.X.X.$.Z s i 7 8 8 % $ n ..X.+.+.X.....#.#.n %.;.g.K.#X2X@XS.R + O t 7 < h j.@.X.+.+.+.O.@.4.=X:X3X3X3X3X3X3X3X3X;X=XG.",
"H.9.5.:.@.X.X.$.=.Z s i 7 8 % & $ ..X.X.+.+.X.......#.#.%.1.D.I.2X#XS.R O o 7 1 - z.4. .+.+.+.O.@.0.:X3X2X<XU.I.I.U.;X2X3X3X3X;X",
":X=XG.8.2.@.X.X.%.Z H i 7 8 8 % $ n ..X.+.+.X.X.........$.;.g.K.<X2XJ.R u 8 5 : h k.+.+.+.+.O.@.*X3X2XU.P.S.S.Z.S.S.J.L.I.<X3X3X",
"3X1X-XG.8.2.@.X.$.=.J s i 7 8 O % n ..X.X.+.+.X.X.........$.5.h.I.2X}.p.u 5 1 - z.6.O.@.+.O.@.=X3X#XS.y.y.R R R R r.y.y.S.L.#X2X",
"<X3X2XI.G.8.2.o.X.=.Z J u 7 8 y % $ n ..X.+.+.+.X.X.........&.7.K.1X#Xa.y 1 - 0 k.+.+.@.O.@.;X2XP.y.R L A A A A A K L L r.f.D.I.",
"L.#X2X1XI.G.8.2.&.$.=.J H y 7 8 O % $ n X.X.+.+.+.+.X.X.......&.8.-X2Xf.q < : w.6.O.@.X.:.;X#XZ.R A A C C B B N N N C J L L y.u.",
"f.J. X2X1XI.G.8.2.$.=.Z J s i 8 8 % $ n ..X.X.+.+.+.+.X.X.X.X.X.2.G.<X{.q - 9 g.@.+.X.:.;X@Xy.L A C A C C B B N + + + O u H J r.",
"Y a.J. X2X<XK.G.8.>.%.=.L K p 8 8 O % $ n ..X.X.+.+.+.+.+.+.+.+.+.2.=X>Xk : f 6.O.X.:.U.P.R A C B N N N + + + + + + O O O y u H ",
"f I a.j. X2X#XK.G.5.;.-.S J U i 8 8 % % $ n ..X.+.+.+.+.+.+.+.+.+.@.6.>XM ; q.@.b :.I.S.K C N N N + + + + + + + + u y 8 8 8 8 i ",
"8 d I p.f. X<XI.G.g.5.;.=.L Y P y 8 8 % @ n n ..X.+.+.+.+.+.+.+.+.+.+.h.N.7 ;.X.:.L.y.C N N N N N + + + + + + O o t 8 7 5 5 5 5 ",
"1 0 d I e.f. X#XI.F.g.1.;.q.R W P i 8 % % $ n #...X.X.+.+.+.+.+.+.+.+.+.k.P $.&.S.K N N N N N N N + + + + + O o 8 7 5 9 9 1 1 1 ",
", < 2 r g e.f.}. XI.D.g.<.-.L W W P i 8 % % $ n #...X.X.X.X.+.X.X.X.X.X.&.q.=.L + + + N N N N N + + + + + O o 8 7 5 1 < : 3 , > ",
"< < < 4 r g e.f.}. XK.g.t.,.-.R W _ P y y % % = n #.$.......X.X.........v =.R H + N + N N N N N + + + + + O 8 7 9 1 < > : < 1 1 ",
"9 9 1 < 2 k g e.f.}.L.D.g.t.-.L R s._ P i y % * = $ n n n n ....n n n n q.= =.W.A.T C N N N N + + + + + O o 7 9 1 : < 1 1 9 9 5 ",
"7 5 5 9 1 2 k g e.f.{.L.D.i.r.q.L W ` ` U u u % % = = $ n n n n n $ *.q.J =   f ^.~.Q T B N + + + + + + o 8 5 1 : < 1 9 5 5 7 7 ",
"8 8 7 7 5 9 0 k g e.f.J.J.i.t.r.L L W ` ` ) P i a % % = = $ $ @ @ q.p.s J O y 8 f T.~.] T C N + + + + O t 7 1 : < 1 9 7 7 8 8 8 ",
"o t t 8 7 7 5 0 r g e.a.j.j.i.r.q.L L W ` ).` Y P a a % % % * J c.c.i P U   8 7 7 G T.].] T K N + + + o 8 9 < : 1 5 7 8 t t o o ",
"O O O O 8 8 7 7 q d g e.a.f.u.t.r.L L J E ` ).).` _ Y Y Y Y c.M.~ 7 8 _ i 7 7 7 7 7 U !.OX] E K + + O t 5 1 , 1 9 7 8 t o O O O ",
"+ O O O O t 8 7 8 i d g e.p.f.f.r.q.L J H U W ` ).).).).m.' ( j 5 7 H ` 7 7 7 7 7 7 p _ /.oXA.E H + o 8 9 < < 9 7 8 t O O O O O ",
"+ + O O O O o t 8 8 d d g e.p.a.a.r.L J H H H U U ^ ^ ! x j 4 1 5 8 W ^ 5 7 7 7 7 8 8 U b.&X/.d.R H t 7 1 : 1 5 8 t O O O O + + ",
"+ + + + + + O o t 8 i d d g I e.a.a.q.L J s s u u i i q 2 3 < 9 7 u { G 5 7 7 8 8 8 O s p.|.#X|.d.J u 5 < < 9 7 8 o O + + + + + ",
"+ + + + + + O O o t 8 y d f g I Y e.e.L J H a i y 8 5 1 3 < 1 5 8 U T.p 7 8 8 8 O % % = q.D.#X#XS.p.f 5 : 1 5 8 o O + + + + + + ",
"+ + + + + + + O O O o t i a f f I I I I J f a i y q 9 1 3 1 9 7 u ` ).i 8 y O % % & $ $ %.g.I.2X Xf.I q < 9 7 t O O + + + + + + ",
"+ + + + + + + + + O O o t i a d f f g g f f d i q 0 2 3 < 1 5 8 U !.b.a O % % & $ n n v $.5.K.1X2X{.z.k 0 5 8 o O + + + + + + + ",
"+ + + + + + + + + + O O o t i a d f f f f d d q q 0 2 3 1 9 5 u W /.d.% % & $ $ n ....X.X.2.G.;X3X Xv.z r 8 t O + + + + + + + + ",
"+ + + + + + + + + + + O O o t i a a a a d d d q 0 9 3 3 1 9 7 U b.+Xa.= $ n n ....X.X.+.+.2.9.=X1X4XN.l.g i O O + + + + + + + + ",
"N N + + + + + + + + + + O O o t u i i a i i q q 0 2 3 1 9 5 a p.W.#Xt.n n #.....X.+.+.+.+.@.4.*X<X4XV.x.I f O + + + + + + + + + ",
"N + + + N N + + + + + + + O o o y y u y y y q 0 9 2 3 2 9 8 Y d.#X#X5.....X.X.+.+.+.+.+.+.@.6.G.-X,XC.v.e.J u + + + + + + + + + ",
"+ + + + N N N N + + + + O O O o t t t t i 8 q 5 2 3 1 1 5 I p.S.2X-X5.X.+.+.+.+.+.+.+.+.X.@.2.h.K. X.Xn.p.Y J + + + + + + + + + ",
"N N N + N N N N N + + + + O O t o t 8 8 8 q 5 9 1 < 1 9 d e.a.}.2X-X6.+.+.+.+.+.+.+.X.X...$.>.g.J.{..Xn.s.W K N + + + + + + + N ",
"N N N N + + + + N N + + + O O t t 8 8 8 7 5 9 2 < 1 1 q e.a.f.#X3X=X6.+.+.+.+.+.+.X.X...v #.;.t.f.B..XQ.d.W K N + + + + + N N N ",
"N N N N N + + + + N N + + + O y t t 8 7 5 9 1 1 < 1 q I e.a.J.2X3X*X3.@.+.+.+.X.X.....n n m q.a.v.n._.Q.b.W K C + + + + N N N N ",
"N N N N N + + + + + + N + + O o o 8 8 7 5 9 1 < 1 q I e.e.f. X3X:X*X2.+.+.X.X.....n n $ $ = J Y c.m.[.(.b.W K K N + + N N N N N ",
"N N N N N + + + + + + + N D u y t 8 7 5 9 1 1 2 q I I Y a.j.#X3X;X0.2.X.X.....n n $ $ % % s J Y / m.[.T.` W T K N N N N N N N N ",
"N N N N N N + + + + + + + + D p u y 8 7 5 9 0 d g I I e.f.J.2X3X-X9.&.....n n $ $ & % % O a P ^ / m.[.T.` W T K N N N N N N N N "
};
