/* XPM */
static char *_bf6fb1b745843aab7ba555c8ee5b0b402WwonYaUpU4F2y9[] = {
/* columns rows colors chars-per-pixel */
"64 64 227 2 ",
"   c #030405",
".  c #0A0606",
"X  c #050B0A",
"o  c #0C0C0C",
"O  c #070708",
"+  c #130C0D",
"@  c #1B0B0B",
"#  c #130708",
"$  c #0A100F",
"%  c #07100F",
"&  c #17100F",
"*  c #0D0F11",
"=  c #190E11",
"-  c #061211",
";  c #0C1313",
":  c #0C1817",
">  c #0D1C1B",
",  c #121414",
"<  c #1D1313",
"1  c #131D1C",
"2  c #1C1B1B",
"3  c #181718",
"4  c #230C0D",
"5  c #2E0C0B",
"6  c #26100F",
"7  c #240E13",
"8  c #231413",
"9  c #2B1413",
"0  c #231917",
"q  c #231B1A",
"w  c #2B1C1B",
"e  c #29151A",
"r  c #321413",
"t  c #351916",
"y  c #341C1A",
"u  c #3A1D1A",
"i  c #35171B",
"p  c #320F11",
"a  c #0D211F",
"s  c #13211E",
"d  c #1C211E",
"f  c #23211E",
"g  c #2C211E",
"h  c #34201E",
"j  c #3B211E",
"k  c #171E21",
"l  c #2B1C23",
"z  c #341B25",
"x  c #3C1F32",
"c  c #0E2522",
"v  c #0F2927",
"b  c #142423",
"n  c #1B2423",
"m  c #122927",
"M  c #1C2926",
"N  c #142C2A",
"B  c #1C2C2B",
"V  c #1A272A",
"C  c #13312E",
"Z  c #1D312E",
"A  c #153532",
"S  c #1B3432",
"D  c #153A36",
"F  c #1D3936",
"G  c #163D39",
"H  c #1B3D3A",
"J  c #1E3638",
"K  c #192F30",
"L  c #232423",
"P  c #2B2424",
"I  c #242926",
"U  c #2B252C",
"Y  c #232D2B",
"T  c #2B2D2B",
"R  c #272628",
"E  c #3C2522",
"W  c #352829",
"Q  c #24322E",
"!  c #2B312E",
"~  c #34312E",
"^  c #3C312D",
"/  c #282C31",
"(  c #382A34",
")  c #243532",
"_  c #2B3433",
"`  c #253A36",
"'  c #2A3A36",
"]  c #243C3B",
"[  c #2B3C3A",
"{  c #29363A",
"}  c #333433",
"|  c #34353B",
" . c #333C3B",
".. c #383737",
"X. c #43322E",
"o. c #432638",
"O. c #453A35",
"+. c #412C28",
"@. c #16413C",
"#. c #1C413D",
"$. c #23423E",
"%. c #2C423E",
"&. c #34423E",
"*. c #3C403E",
"=. c #45423E",
"-. c #2C3E42",
";. c #383B43",
":. c #472A45",
">. c #4C3850",
",. c #1C4541",
"<. c #1D4A45",
"1. c #1D4E49",
"2. c #1E524C",
"3. c #1E5751",
"4. c #234642",
"5. c #2C4442",
"6. c #234945",
"7. c #2B4945",
"8. c #244E4A",
"9. c #2B4E4A",
"0. c #344543",
"q. c #344A45",
"w. c #334C4A",
"e. c #3A4D4B",
"r. c #3A4546",
"t. c #23524D",
"y. c #2B524D",
"u. c #32524D",
"i. c #3A534E",
"p. c #3C4C54",
"a. c #394D54",
"s. c #235650",
"d. c #2C5551",
"f. c #245A55",
"g. c #2B5A55",
"h. c #245E59",
"j. c #2B5D59",
"k. c #345452",
"l. c #345A55",
"z. c #3D555B",
"x. c #345D5A",
"c. c #3A5B5B",
"v. c #395754",
"b. c #2D4F50",
"n. c #26625C",
"m. c #2C635D",
"M. c #32635E",
"N. c #3A645D",
"B. c #2C6661",
"V. c #2B6B65",
"C. c #2C6F68",
"Z. c #276862",
"A. c #346562",
"S. c #3A6463",
"D. c #336B65",
"F. c #396C65",
"G. c #3E656A",
"H. c #336E69",
"J. c #3C6D6A",
"K. c #2C736C",
"L. c #33736C",
"P. c #3B736D",
"I. c #2E7C74",
"U. c #2D7770",
"Y. c #347670",
"T. c #3C7473",
"R. c #337C74",
"E. c #3A7B74",
"W. c #3C7E79",
"Q. c #347E78",
"!. c #3C5E61",
"~. c #454C48",
"^. c #47534D",
"/. c #484856",
"(. c #455C5A",
"). c #475755",
"_. c #515B54",
"`. c #46635C",
"'. c #52645D",
"]. c #4A5663",
"[. c #486867",
"{. c #536864",
"}. c #43736D",
"|. c #53736B",
" X c #5A746C",
".X c #4A6A72",
"XX c #566779",
"oX c #417C7C",
"OX c #477678",
"+X c #557B76",
"@X c #624563",
"#X c #2F8279",
"$X c #34847C",
"%X c #3A847C",
"&X c #3B887F",
"*X c #35867D",
"=X c #43837B",
"-X c #5A8379",
";X c #608278",
":X c #567885",
">X c #4A7F84",
",X c #646B83",
"<X c #358C83",
"1X c #3B8C84",
"2X c #3B8984",
"3X c #369087",
"4X c #3C9087",
"5X c #36938A",
"6X c #3B948B",
"7X c #3B988F",
"8X c #37988E",
"9X c #3C9C93",
"0X c #3DA096",
"qX c #3DA399",
"wX c #3FA99E",
"eX c #3FABA1",
"rX c #448988",
"tX c #41958C",
"yX c #40978D",
"uX c #419D93",
"iX c #439995",
"pX c #55858F",
"aX c #689489",
"sX c #40A197",
"dX c #41A49B",
"fX c #41A99F",
"gX c #42ACA1",
/* pixels */
"3X9X&X4XJ.2 2 .X:X| T Y.9X%X_ < 4.f.Z V C b ! k.E.9X6X7X7XtX&XF.s.$X3XS 0 (.|.O.t x.dX4X] < r.Q   G 5XQ.D.4X0X1XF.d.I.6Xt.<.f.K.",
"[ P.dXdXE.S 2 /.>.U m.B.9.4X1Xj.t.Z B H K l r 0.&XA.[ 7.0. .T ` $X3XA 0 ).`.^ t x.dX1X) < ~.'   G 3X$X$XuX1Xl.} Y K.8X<.o X - > ",
"p.tXOXG.8X6Xl.( ( D.R.[ 4 ' 4XqXj.) #.N n W v.1XM.q 0 w u 5 P $X5XA 0 ^.e.y y N.fXE.M < ).%.  G 3X3X3X4Xj.I p w K.9X<.o , ; O o ",
"iXrX:.3 @.*XuXG.D.R.5.P ~ ) f.R.6XQ.@.% e e.tXH.q } `._.E P $X8XG 2 r.} 9 ~ P.dXL.d < `.i.X A <X9X6XY.) 8 r t B.0Xs.- n b ; X 0.",
"rX/.:.1 ; Y [.iX9X9.8 } N.6.B S Q.9XI.H T T.P.Y _ [.-X=.w H.0X2.; T q 0 q.2XfXY.2 q [.[.- c #XwX3Xl.q w W y l.0XV.: 1 b : X F rX",
"].>./.] V e p.4X6XQ.) I y.F M 9.9.t.<X1XE.E.' f  .0.~.y l.0XV.: & q ) H.4XsX1XY < `.-XV - Z.wX<X5.9 T r.h &.9X$Xc X ; % X c Q.iX",
":.>.) J k | rXE.w.$X%Xy.H B 9.T.] X A Y.qX1Xx.7.Y 0 r _ 1X$XA c ] m.1X2X%X9Xu.@ &.|.[ - 2.9X$XS 9 ..(.~ T %X6X#.b S ,.8.<.h.iXG.",
"z.;.: > V G.tXb.7 Y R.3Xs.) D.oXS   1 M.R.Y.4X1XL.x.w.F.9XZ.f.K.*X1XL.v.4X%Xf T `...1 3.9X9X@.= r.|.i.P v.9XC.s.Y.1X4X1X1X9XuXT.",
"2XQ.f.N S rX2X| e 0 ` Y.$XB.M.9.B > 6.Y.9.T x.%X2X1X2XuX9X<X$XQ.B.$.R S.dXu.L w.! q f.<X9XQ.> L .X[.T P T.9X$X*X1X%XH.j.C.9X2XW.",
"a.Y.$XL.j.tXT.| ;.w.[ S h.3XR.Z 1 D H.E._ P _ _ [ 5.S.9XR.t.#.Z 2 @ I 2X4X5._ I n m.I.K.9Xh.- w.(.P L v.iX8XV.8.$.Z 1 s K.9Xw./ ",
"z U ,.H.1XiXc.U p.}.c.V B Y.4Xm.m N L.E.{ _ q.R 8 8 x.9Xg.; X . q < [ 6X2X%.q Z B.L.,.K.9X<.v -.P Y S.2XdXL.b ; o 3 # m *X6X{ 4 ",
"| x o V K.dXT.{ U v.P.Z Z A.D.Y.B.H n.L.w.w.[.v.L < F.7Xy.o X > 5.Y g.uXE.T ` V.V.Y n I.8Xf.N 2 [ T.J.A.uXA.; o 3 Y 1 S <X<X_ w ",
"[..Xk o m.7XW.D.] Y x.9.F D.y.] A.L.K.B.[ k.}.}.5.Y D.iXk.b N S d.5.g.9XY.9.L.j.M @ q I.9Xs.b 4.oXJ.T k.dXD.1 V H 6.$.t.3X8Xb. .",
"}.pXa.; d.6XG.k.B.6.$.9.t.H.D.n M m.*XQ.] _ w.u.k.7.L.uXP.6.,.#.H B ` 1X6XL.9.L < L _ $X9Xt.6.E.T.| 4 5.iXE.7.<.,.H F #.*X9Xj.e.",
"[ c.OX,.4.1XT.( 5.m.f.$.4.Y.rX-.@ I m.<XK.8.5._ Y Q y.6X%X%.B c c N 8.<X9Xy.8 q q.c.w.M.9XI.m.9.Y w w [ 4XyXv.Q V b b M m.9Xf.Y ",
"M n 0.x.f.Q.1X;.z ] B.j.) y.tXT.Y @ ` L.K.n.m.c.[ I Q R.4X%.T %.<.s.s.V.9XM.8 _ oX}._ ] 6X6XH , + n w.l.E.uXv.R ` 7.d.9.M.9XQ.H ",
"<.F n _ 6.K.9XJ.z 7 ` B.j.S m.tXH.I q g.K.6.4.H.oXS.9.D.9XE.u.[.=Xt.c N <X3X$.l.P.) n 6.R.9Xf.% V d.f.[ %.4X2Xv.c.OXoXl.y.%X0XK.",
"8.,.,.S B #.*X9Xk.z 3 ] B.y.$.D.W.D.) ' L.n.V B G.>Xk.y.*X9Xl.! ^.%.X X t.9X*Xg.Y V ,.F ) 1X1X6.h.s.Z n [ Y.dXJ.} r.z.-.n ] 6X1X",
"m.m S ,.H V H 1X6Xa.l 2 4.j.9.9.m.H.H.9.l.$X1.3 n w./.P ` 3X%XR 9 g 3 m 2.<X0Xt.V 6.F + # 4.7X4Xy.m B c.k.%.%X6X .i W l < + g.9X",
"9X9.; V #.,.N ,.1X4Xz.l k 6.j.9.d.d.g.L.D.Y.*X#., 2 U z 4 7.9XL.f } N.L.Z.1.#X6Xf.V , + B y.%X9Xm.N H S.z.0 ) 4X2XT z } T < d A.",
"Q.6X$.. 1 S #.A 8.1X4X!.R M 8.t.7.l.6.$.m.E.6X1X<.S ] -.( L j.9XL.H.=XM._ d <.8X<XN . F E.E.4.V.0XZ.b 3 k < < 9.6XW.x.J.=XF.6.$.",
"V.1X4X` . , B H S t.2X4XJ./ B t.8.%.x.4.B 6.L.yX9XU.D.E.oXT.L.1XwX$X$.L T ^.&.] 5X$XH C.%X#.: A Q.9X8.# 1 $.d.B.*XqX6XL.W.rX%XR.",
"L.$X9X4X[ . o V H S 8.Q.1XT.` B s.7.' x.6.1 V 7.%XuX$XR.2X%XL.c.M.6Xn.n 5.}.^.9 ` 1X9XK.A : b > s C.9Xt.y.rX4XK.g.l.4XY. . .e.N.",
"T 9.L.9XyX5.o . V H S 4.L.1X%X5.S j.y.! i.d.b , I P.rXl.F C m k W S.sXK.b I P f 7.$X9X$XG > b ;   > K.qX1XD.6.B 1 3 q.7XY.T i W ",
"( w I g.3XuXl., X b H S H V.1X2Xd.S j.j.T r.N.S , M P.tXv.2 ; > n U z.uXL.1 1 A.yXD.' %X8X#.X O b j.*X<X6Xm.> o > m n 5.tX2X .W ",
"( /.( 0 ` Q.uXJ.d O b #.F S j.*X6XA.] j.m.T } `.7.> n H.uX[.T n m > + 5.tXoXV.5Xm.n L ! R.iX4.m K.6XV.N 2.9XK.c - b b , Q 2X4X0.",
"0.W ]./.P L M.9X%XB O > #.H B y.R.6XW.8.j.L.' W (.w.: ; g.iX}.W P ; X > j.dXdXh.; X B R 0 M.4X2X&Xt.> X - ,.6X$Xc O ; * . d Y.tX",
"iXl.w /.XX..q 9.6X1X] O > ,.4.B $.V.1X6XA.m.Q.7.h *._ ; O $.3XE.^ P $.U.6XQ.R.3X,.% X . $ 4.3XdXP.g 0 Z > X C <X<XA X o - O , M.",
"d.6XD.w :.XX/.q ] 1X6X7.. - #.8.Q S s.R.9X1XQ.<Xl.w y 0 o X H *X%XF.tXiXD.c - V.9Xf.o - f.9XR.8.4XE.T ^  .o   N U.<Xs.2.f.2.G N ",
"f.d.1XY.g ( XX].P Q $XuXd.o X #.f.` M #.h.$X9X9X0XE.l.v.l.m.V.$XqXfX%X&.h ..Q - 3.9Xm.j.9XK.c   S 1X1XQ 9 w #.n.I.9XwX9X9X9X8X$X",
"qX<XC.&X%XR z XXXX} Y L.0XM., X G n.5.L S H t.R.3XqXdX9XuXdXsX6XC.K.6X9.9 ^.aX~.o 1.9XqXB.1 ; ; O c I.1X9.L.uXsX6XI.K.9X$XZ.I.6X",
"f.$X9X<X1X%X_ e ].XX;.I B.0XL.s   A B.b.R B m s ` 9.$X6XH.l.e._ 3 ; n.0Xj.8 ..E ~ R.6X3XI.m 2 ' ,   C $XdX7XR.u.} d - <.6XK.A D ",
"X c s.<X8X6X1X' 9 /.:Xe.I j.9X%XZ O N V.j.U Y V o + n R.1X%.5 u O..., 3.0XZ.< ` 1XuXe._ 1X<XN , 3 H $X9X<X6Xg.< 9 W } ; @.9XU.c ",
"c   X N Z.6X9X1X[ 7 /.:Xz.I 8.9X3X4.- N K.A.( _ J 1 3 n R.6X%.w '.aX~.8 t.8XK.4X4X[ 9 u ~ 1X3XA 1.9X7Xh.c n.0Xd.<  .+X{.3 D 6X$X",
"I.c O X : <.*XqX1X' 7 p.:XG.Y 4.6X9Xm.c C K.A.( } ] b 3 n Q.7X] e ^.O.r T R.eX<XA + e.{.h ~ =X3X6X#XG , < ; Z.0Xt.< *.[.^.q @.6X",
"9XU.> . o ; A K.wX1X_ 7 p.pXG.Y #.<X0X$X,.#.I.B.( ;.K ; , B *X6X) 4 w w.1XiXY.6Xf.X M i.w L P.fX1X) o b q.T > K.0X<.< 0 w E 4 ,.",
"f.9XZ.- o : > m n.qX%XI 7 p.pXS.M H K.6X9XC.n.#Xj.:.z X O . S 1X%X9.Q.0X4Xe.g P.0X1.    B %X7XA.tXP.w R q.) < s I.6X#.B Y I w 0 ",
"$.V.9X<.X ; b b > s.9X%XY 7 p.pXk.b G f.R.9X6X<X3Xd.;.S C D ,.H.0X9X6XH.Y r u W 2X6XA G <X6X7.8 M.dXc.9 g + > ] m.9X5X<X4X%XL.c.",
"tXK.<X$Xm . 1 S V > n.dX1X` < z.oX] s A S 6.Q.6XqX9X6X1X<X6X9X9X6X9Xg.0 0 ~._.t 0.iXR.3X3XG o 8 R %XtX..w 7.Q.9XsX6XqX5X<X6X9X0X",
"%XuX9X0Xf.o o n ] 1 C U.9X4X7.L [.F.V m C : 1 H V.9X<X2X1X$XU.f.6.6X$Xd P |.`.y h E.fX%XC   o ; @ 9.9XP.P.uXuX$Xh.4.*X<X#.A 7.M.",
"L q.Y.9X5X2.; o B S > 2.L.%X9Xd.-.J.$.1 N V o . A <XK.F _ v : X : L.9X6.<  .w q M.tXsXF.0 , 1 %   Y %XqX6XP.&.q & ; j.qXh.X . 8 ",
"w 8 P L.qX9XV.b > S b G Z.y.L.0XH.S.y.b b N 1 o b K.<XG e 2 X O X s.sXA.< @ Y R.0XF.&X4X~ w s O N K.9X0Xx.h t W .., H 9X#Xa O U ",
".X} 9 M.5XU.9X$XH N b C Z.8.I A.9X6XD.V > m 1 o 1 m.6X1.z /.V ;   #.9XQ.I $.1X9Xd.I Y.uX&.r < G <X9XL.9XD.9 O.-X|.0 V 1X3XA   Y ",
".X;.8 l.8Xf.t.9X3Xs.b N n.j.3 < y.7X9Xj.S N ; o : n.6Xf.x ,X{ *   G 6XQ.M.9X1X7.4 0 L.uXq.9 w.8X3X,.<.9XL.0 O.;X'.g n *X6XG   ; ",
"R } 8 x.9Xf.; H <X9Xt.B n.j.2 @ L A.6X9X*Xh.m . ; h.6Xs.e @XR   X G 5X9X9XR.Y 8 g q L.uXq.l.uX$XC X <.9XL.0 ^ X.t 6 M *X3XA     ",
"2 4 0 F.8Xt.o O A $X9Xm.Z.8.< q -.x.x.m.8X9XQ.s.S B.5X,.8 o./ D h.$XqX4Xg.2 e r.P f %X4XJ.uXP.n   X f.0XM.8 6 h } u.m.3X1Xh.1.A ",
"Y.7.Q E.<XH . , > G K.9X<X$.@ R G.>Xw.n t.Q.8XqX3X3X5XZ.A.T.2X8X0X6X0Xl.8 P (.).8 ` 4X6XiXM.t g % : K.9X7.R u.E.6XsX9XqX9X0X9X5X",
"9X9XQ.4XV.: . n B > N R.qXL.L q G.oX{ b C V #.B.*XqX9X0X0XuX9X$Xn.$X6X_ 8 (.+X} 4 j.dXiXv.9 O.e.  A 6X$Xy.%XsXuX&XF.Q.9Xm.h.K.<X",
"7.H.9XdXK.m X k V > H K.K.9X$X] x.v.n S S * . b C.<Xs.d.k.a.] c 2.0XD.9 ( ].} 8 [ 3X7Xq.r =.+XY X Z.9X$X9X6XF.&.P [ 6X$Xb X : m ",
"4 9.6X&X9X<X,.a : c V.K.b 7.6X6XH./ B #.V o ; y.4Xn.1 < 9 z   v <X3XT z r.P < 9.6XdXl.r ~.aX`.. G 6X0X9XL._ y p w Y.9X7.o X O O ",
"_ 1X2X) 2.5X9Xn.b t.*X8.+ 8 9.9X7Xj.6.N + o $.4XQ.b L r./.U - K.9X9.i ( 8 f A.9XdXY.y X.-X X3 a $XwX&X7.8 y X.9 l.0XB.< $ 1 - + ",
"Q.7X&.o X G $X9XK.I.t.; R p.k.9.R.dX$XF o b R.2XA 2 (.+X/.; f.0Xm.e i 8 ` $X7X9X1XT E |.'.0 c U.qXL.I 4 .._.y  .uXQ.L < ; ; O f ",
"9Xu.9 : ; - b V.wX<XC o p.>Xa.n 6.R.9X3Xs.j.E.H , | p.~.2 <.9XK.0 p Y M.9X1X1X3X_ u {._.9 C $XwXm.8 w ^.{.j ! 6X*XM @ X     1 L.",
"9.r 2 1 > % F Q.R.3X$X` 0.e.I 4.d.n 4.*X0X9XB.S B 0 9 8 ,.6XK.Y } x.1X0XR.%X6X[ u '.~.9 H 5XeXm.< T [.{.E T 4X*XF I F @.#.A A.6X",
"q.I X X X #.1XK.1 H 5X6Xk.I 6.H._ # 2 s.<X4X9X3XL.g.5.8.3XI.j.P.6XqX1Xx.E.6X[ u _.=.9 6.8XwXm.< } |.{.j ~ 1X%Xj.H.1X8X9X6X3XsXQ.",
"uX$Xf.c ,.3XK.1 o > 9.2X1XV.j./ < { D.D.` #.L.1X9X9X9XqXqX6XsXuX1Xj.%.%X3X_ E _.O.9 s.9XqXh.< ..+X'.u } 1X1X*X9X0X5X$XK.6X9X4X9X",
"K.5X9X$X<Xn.; 3 -.a.W [ 3XqXS.< R T.L.Z V ` I Y 9.Q.9X$XQ.T.S.7.I ` 1X1XT ^ _.E 0 m.qX0Xt.< r.+X_.t &.4X9X9X4XD.<.C G U.4X%.! u.",
"; G $XwX9Xh.1 > 5.( _ B.x.P.9XD.d.d.Y ) G.z.0 < g.<X2.s P z 8 @ [ 6XQ.P X.~.t R K.wX8X$.8 ~.+X~.t w.9XdX<XM.) ;   N $X4X) 8 j < ",
": C.3Xs.U.qX$XH q [ %XJ.W z A.dX1X$.` w.p.P 2 A.$XG ; ( o.l = y.9XD.g X.O.9 ' $XeX<XS 0 (.+XO.t N.dX0XK.) < O   G 5X%XL P  X^.X ",
"$X5XG   1 n.9X1XM.R.v.( >.r.w.m.3X6Xm.L @ n L.U.C 1 [.,X..0 M.9Xj.w +.j w d.5XeXI.M w [.|.X.y P.gX3X8.q < X X 2.9XL.f T  X|.- v ",
"$XN   V I ; 6.tXwXA.e o.XX.X_ Q M.1X9XA.$.C.n.c > (.,X( q L.9X7.6 t t } L.9XqXV.3 T |.|.E W %XgXQ.Q 0 f o - n.9XM.8 0 ^ ^ o G 3X",
":   n p.k V L.E.Y.9XS.| e.T ] J.[ Y H.9X9XR.G c l E i I $X1X) 4 t } S.3X0X9Xh.< ..+X'.u } 4XfXD.d w T X : K.9X7.@ < w w : <.6XK.",
"v - 2 2 C %XQ.I w J.dXE._ 4.OX(.l = 4.Q.<X9X<XL.w./ ' 2XE.%._ e.P.4X9X8X5X6.8 r.-X_.u 0.9X0Xj.3 W _ X c $X<X7.Y 7.M.P.R.I.9XQ.<.",
"#Xj.Y F 1XE.I P ( | J.7X$XF. .l 0 4.n.] H K.1XuXiX1X3X4XL.R.1XuXuX*X$X3X,.8 ^.+X~.t u.sX9Xy.< ~ ' X N <X<X9.l.%X9XsX9X0XqX9X9X8X"
};
