/* XPM */
static char *cfed79c4c21140d3f7928042327b0ca6qlTB0aVuRbX09IcS[] = {
/* columns rows colors chars-per-pixel */
"64 64 147 2 ",
"   c #020502",
".  c #050B04",
"X  c #071107",
"o  c #081307",
"O  c #091508",
"+  c #0D1D0B",
"@  c #0F220D",
"#  c #142607",
"$  c #162807",
"%  c #12260C",
"&  c #152A0A",
"*  c #192D09",
"=  c #17330E",
"-  c #1A320A",
";  c #1E3A0C",
":  c #142D11",
">  c #163313",
",  c #183713",
"<  c #1B3C12",
"1  c #213D0C",
"2  c #1F410F",
"3  c #1E4414",
"4  c #1F4A14",
"5  c #1E4518",
"6  c #1F491A",
"7  c #24440D",
"8  c #264A0E",
"9  c #294E0F",
"0  c #2C520F",
"q  c #30580F",
"w  c #214513",
"e  c #284614",
"r  c #224C14",
"t  c #294E11",
"y  c #224C19",
"u  c #2D481C",
"i  c #255216",
"p  c #2B5311",
"a  c #2D5A14",
"s  c #255419",
"d  c #29551B",
"f  c #27581B",
"g  c #2A5A1A",
"h  c #305612",
"j  c #315C12",
"k  c #325E12",
"l  c #30571D",
"z  c #345C1B",
"x  c #2F6217",
"c  c #2E6119",
"v  c #2D601D",
"b  c #336213",
"n  c #356313",
"m  c #346315",
"M  c #336517",
"N  c #356414",
"B  c #386714",
"V  c #376915",
"C  c #396B13",
"Z  c #396A14",
"A  c #3B6F15",
"S  c #386C16",
"D  c #336719",
"F  c #38661C",
"G  c #376B19",
"H  c #376F1A",
"J  c #386F19",
"K  c #3B6C1C",
"L  c #3B7016",
"P  c #3D7216",
"I  c #3E7416",
"U  c #3B7218",
"Y  c #38721A",
"T  c #3B751B",
"R  c #3E771B",
"E  c #3F7819",
"W  c #3F7A19",
"Q  c #2E5522",
"!  c #2C5B20",
"~  c #325D22",
"^  c #366323",
"/  c #346124",
"(  c #3A6623",
")  c #376924",
"_  c #3A6A22",
"`  c #37672A",
"'  c #3A652A",
"]  c #3C6B2B",
"[  c #3E7225",
"{  c #3F702C",
"}  c #407617",
"|  c #437C17",
" . c #44771F",
".. c #417B19",
"X. c #417E1B",
"o. c #427F1B",
"O. c #447E18",
"+. c #426D2C",
"@. c #427724",
"#. c #447B25",
"$. c #447E25",
"%. c #487E23",
"&. c #42712D",
"*. c #46792B",
"=. c #497C2B",
"-. c #446F34",
";. c #456F38",
":. c #457433",
">. c #497735",
",. c #4A7837",
"<. c #477439",
"1. c #49773A",
"2. c #4B7B3A",
"3. c #527C41",
"4. c #448017",
"5. c #458018",
"6. c #44821B",
"7. c #468419",
"8. c #47871C",
"9. c #49871A",
"0. c #49891B",
"q. c #4B8D1B",
"w. c #4D8F1B",
"e. c #498A1C",
"r. c #4A8B1C",
"t. c #4E921C",
"y. c #50931E",
"u. c #529B1D",
"i. c #56A11E",
"p. c #58A21E",
"a. c #4A8326",
"s. c #4E8C24",
"d. c #4A822B",
"f. c #4E8A28",
"g. c #508E26",
"h. c #518C2B",
"j. c #519223",
"k. c #56932E",
"l. c #4E8331",
"z. c #528636",
"x. c #548B34",
"c. c #548A39",
"v. c #588D39",
"b. c #579134",
"n. c #5C943C",
"m. c #578741",
"M. c #5A8B43",
/* pixels */
"  . O @ : > i G r r < < < < < a ..R N t t t < < 5 5 5 < 5 a 5 y y 5 5 5 5 y 7.q.N 0 t t y y y y 5 y v y 5 5 y 6 5 < , m a 7 .   ",
". O % > < , R e.p p 5 y 5 y y S 0.9.n 0 p t 5 5 5 , , , r 7.d s s y 5 y y a w.0.S p p p s i s s s v 8.g y y s y y 6 a w.0.S 0 . ",
"O % , 5 5 < R X.a p 3 5 5 < 3 j 5.7.9.| j t 5 5 5 5 < < J e.p p s y r r r b w.0.S p p p s r s f s T e.p p s s s i s N w.0.S 9 * ",
"@ > 5 y y y H E 5.V w < < = w j I 5.q.t.q.p t w 3 3 < < E 0.p p r w 3 r i S 0.9.n 0 p p i r i s s X.e.a p s s s s f L 0.9.n 0 ; ",
": 5 y s y g D p j j 0 3 3 < ; P - - - 7 O.C p t r w 3 = Y E p p w < < 3 w m 5.7.9.| j p r i r s s X.5.a p i s s i i m 5.7.9.| w ",
", y s s s g $.^ 0 0 0 w < < w Z - - - - I | 0 t r r 5 < M R X.V 3 < < 3 t j I 5.q.t.q.a r i r i s Y ..5.S r r s s t j I 5.q.t.G ",
"< y s i i g h.a.j 0 0 r w r w Y L 9 7 - 0.S 0 t < w w w m p j j p r 3 3 w P - - - 7 5.0 r r r i i D p j j p r r i w P - - - 7 G ",
"5 i y i r d j.j.N 0 0 d m a p d M 5.X.X.0.j 0 t < 3 3 r #.~ p 0 0 w = < i Z - - - - a 7 w t i r r #.^ p 0 0 i r s g Z - - - - t ",
"5 s s s i [ j.j.Z 0 0 j 5.N p r i s s m 5.p 0 t 3 < < r h.a.j 0 0 3 = < 3 V S 9 7 - 1 1 w V p t s h.a.j 0 0 i r s r H Y 9 7 - ; ",
"y s s s i f.t.s.S p 0 j E N 0 t r i i N I 0 0 t 3 3 < d j.j.N 0 0 t 3 < 3 i m 5.X...7 ; S | 0 t y j.j.N 0 0 d i s i g H 5.5.X.w ",
"y s y i i g.y.s.T p 0 p x V j 0 p i p j N 0 0 t 3 r 5 [ j.j.Z 0 0 p w 3 p r 3 r r r r 5 0.S 0 r _ j.j.N 0 0 p i i i s s s s y 5 ",
"y y y r i j.g.d.2.&.a p g I j 0 0 p 0 Z 5.O.j p r r r f.t.s.S p 0 p r r n p w r i r r r 0.j 0 8 f.t.f.V 9 0 0 r r r i i r r 5 5 ",
"r s s r s j.n.n.k.k.n.^ g 4.N 0 0 0 j B N S j p r r 5 g.y.s.V t 0 0 r r C 0 5 i s r i m 5.p 0 t g.y.8.N 9 0 0 r w 5 r i r 5 5 6 ",
"r y s r s j.x.z ; e h.m.a 0.| j 0 0 N 5.j 0 p p i i r j.g.d.<.+.a t r r P 9 3 r r r i S } 0 0 t j.s.=.;.+.p t r r 3 3 3 5 5 < < ",
"t 5 5 5 d b.1 - - p 0 z a 0.0.B 0 0 n O.S 0 p p r i i j.n.n.k.k.n.z r r P 0 < < 3 d p Z B 0 0 p j.n.n.k.k.n.l r r 3 < < < < < 5 ",
"t 5 5 r / ' - - 7 X.0 p j q.t.P 0 0 p N C 0 0 p i i s j.x.z ; e h.M.3 r S 0 3 < 3 S N X.7.O.j p j.x.z ; e h.M.r r 3 < 3 < < 5 5 ",
"t < r s g ,.2.e n 9.j j g 5.u.} 0 0 0 a b p 0 p d i g b.1 - - - 9 &.r r S 0 t 5 r X.O.P N S j p b.1 - - - 9 +.r t w w 3 < < 5 5 ",
"t y s s i d c.k.j.j.z p i H u.| j 0 0 0 0 0 0 0 p i / ' - - - - 1 l./ r I j 8 r r 9.9.9.j 0 p p ' - - - - 1 l.Q V t r 3 5 5 5 5 ",
"t s s s r i g ) a.8.p p r a u.} N 0 p 0 q q j 0 p i d :.,.e - u 3.d.i a 9 j ; w i 5.w.q.S 0 p p -.,.e - u 3.:.S | 0 t r s y 5 5 ",
"p s s s r s s S L R N j w a y.} N j q j j n } j t i r s c.k.c.M.=.7.a j ; - 7 i g P w.0.S 0 p t r c.k.c.M.&.i 0.S 0 p 3 w r y 5 ",
"p i r i i s s I Z p p 0 0 a t.q.O.} P N j a j 0 r r i i g ^ &.[ Y 0.p a G Z a s g S w.0.S p p p r y ~ ] ( r i 0.j 0 9 3 r r 5 < ",
"p s s 5 5 i s r %.^ p 0 0 p 7.t.} S n p p p q 8 t i s s s V p i E 0.p p Y c s i i I 0.9.n 0 p p r r Z t 3 3 a 5.p 0 p r r r < < ",
"p s s r 3 r i 1 h.a.j 0 0 p E 7.8 ; - * - 7 n 8 r i i i d S 0 r R X.a p i s s i g } 5.7.9.| j p s r P 0 5 r S } 0 0 t r 5 5 < , ",
"J y r r 5 i g K j.f.j 0 0 p N 7.1 # $ $ $ 7 n r r w r t p 7 0 3 M E 5.S i r s s a j I 5.q.t.q.j i i 1 0 3 r N B 0 0 p r 3 w 5 < ",
"j y s r r i i #.j.g.N 0 0 0 d 0.n ; * * ; n j w r t 0 0 t - ; w m p j j p r s s p P - - - 7 5.0 r i - ; 3 a X.7.O.j p i w r 5 < ",
"r i s i r r i f.t.s.S 0 0 0 w Y 7.B 9 8 p N j r w p 0 p g G p i $.^ p 0 0 w i i M S - - - - a 7 w g G p r ..P N S j p i r s 5 < ",
"y y s 5 3 r r g.y.s.Y p 0 0 r i H X.P P n 7 p t p p p i i a c c h.a.j 0 0 r i r a N Z 0 7 - 1 1 r s c g r 7.9.j 0 0 p r w y i 5 ",
", r y 3 3 3 i j.s.d.1.+.a p i r w g a R N ; t r t 0 t r r r r g j.j.N 0 0 t r r V N j 7.7.X.r w s s r r r q.q.S 0 p p s i f s 5 ",
"r p p r 3 w i j.n.n.k.k.n.z i r 3 3 r p N Y w w w 0 0 t r i i [ j.j.B 0 0 t r i 5 Y Y a 7.d i s s s i r a w.0.S 0 p p s s f s y ",
"N N p r 5 3 r j.x.z ; e h.M.s i 3 < 3 n p r 3 w r p 0 p r i r f.t.s.S p 0 0 r i 3 3 r Y 0.p p i i s s r n w.0.S p t p i s f i 5 ",
"X.P p i r r ! b.1 - - - 9 +.s r r r i Z p r < < 3 w p p w < 3 g.y.s.J p 0 0 i i r 5 r X.0.p p r r r r r S 0.9.n 0 p p s i f s y ",
"7.C p i r r / ] - - - - 1 l.~ 3 i s s P p r 3 r r r w w < < 3 j.s.=.<.+.a p r r r r r E X.p p r r 3 3 3 m 5.7.9.| j p r i s s y ",
"0.j p i r r y :.>.e - u 3.:.r 3 s s i P 0 r r r d p t w < < r j.n.n.k.k.n.l 3 r r r 3 N R X.V r i r r w j I 5.q.t.q.a r i s s y ",
"q.q p r r 3 < < c.k.c.M.&.r r r i r r P 0 r r r S N p 3 < = < j.x.z ; e h.M.3 r t r p D p j j p r i i w P - - - 7 5.0 r r r s y ",
"9.0 p r r r 3 < w ~ ' ( w r i i r r w S 0 t 3 i X.P p r 3 ; y b.1 - - - 0 +.y r V t p #.^ p 0 0 w r r g Z - - - - a 7 w r y y 5 ",
"0.p 0 3 r 3 < 3 < V r < = 3 r r r r w I j 8 3 i 9.C p i r 3 Q ' - - - - 1 l.~ L | 0 a h.a.j 0 0 i r 3 r V L 9 7 - 1 1 3 r s y 5 ",
"5.p 0 3 r r < 3 < P 0 < < 3 3 3 r r t 9 j ; 3 r q.j p s i r s :.>.e - u 3.:.3 0.S 0 a 8.j.N 0 0 d i w 3 w m 5.5.X.w < r r r y < ",
"5.t 0 w t r r r r 1 9 < 3 3 < < < < p ; - 7 r d q.q p r r r p d c.k.c.M.{ 3 w 0.j 0 K R X.Z 0 0 p r r 5 r < < 3 3 3 < 3 5 s i , ",
"N m p P p 9 3 i i - ; ; 3 3 < < < < p a N p 5 d 0.0 p r r 5 n p g ^ &.] i r j 5.p 0  .j j N p 0 p 3 3 3 5 < < 5 r 3 = ; 5 s y , ",
"t 8 I t.N 0 w 5 r D t < < < < < < ; < N i < 3 i 0.p 0 5 r 3 Z p i Z p r r r S } 0 0 f.n 0 j p 0 0 < 3 3 3 < 3 r i r ; 3 r r 5 , ",
"; - j L j 0 t r r a p 3 = < 3 w 3 < < < 5 3 w i 0.p 0 3 r i P p r P 0 w w r V B 0 0 j.X.0 j +.p t < r 3 3 5 r r r 3 < r r r y 5 ",
"m ; r r P j 0 p w 0 w < < < < < < < = & < < < a 7.p 0 w 3 5 P 0 3 7 0 t t p X.7.O.j j.v.j p F *.l 3 g M D a r r 3 3 r r 3 r y 5 ",
"D H r w 5.p 0 0 0 0 w < < ; = ; 3 3 < = 3 3 < t S m p < < < S 0 < - ; j N j P N Z j j.K p 0 t j ( a Z Z P 5.D r 3 w w 5 < 5 5 5 ",
", > 5 3 q.N 0 0 0 p w 3 3 < ; ; 3 3 3 3 3 3 3 p p 8 I = < 3 S 0 r j p } P j 9.j 0 z #.0 0 7 - 0 j C 7 1 7 N 7.G 3 9 r 3 < 5 5 5 ",
"> , < w t.5.a 0 0 t r r r 3 < < < < < 3 r < < a ; - j < m w I j 8 d d 0.C j 0.Z 0 F h 0 9 ; - 8 n p # $ $ - n e.i p t 3 w 5 5 , ",
", w p 0 q.9.Z 0 0 0 t < 3 3 < < = = < < < < < N j ; w r 7.a 9 j ; ; w q.j j 9.S 0 p j ( e - u >.n - $ $ $ # 7 q.m p 0 t r 5 y , ",
"5 t 0 t t.y.S 0 0 0 9 3 r 3 w 3 < = < < = < < < N V 3 H 0.b ; - 7 3 w q.q j 0.S 0 8 p c.k.c.c.F n 1 ; - ; 7 j w.R i 0 t w r y , ",
"< 5 w 3 I u.} p 0 0 0 p w w 9 r w = < < < < = < < < < R 0.N n N a 3 r 0.0 j 9.n 0 9 t y ~ ] ( t a j j b P } 7.t.5.t 0 t r r y < ",
"5 5 5 3 a i.I j p 0 0 0 0 0 0 7 = < r 3 < < < < 3 3 < L R t S t 3 ; r 0.p p 7.9.| j 9 5 Z t < w p a j C S P } 0.0.9 p p t s s y ",
"< w w 3 i p.I Z p p 0 p p r t 0 w 3 r 5 3 3 3 3 3 3 < M I X.N ; ; = w 0.j p 5.q.t.q.a 3 P 0 w w w 9 t 0 9 p V O.t.w i t t y y y ",
", t p i p u.I N p 0 0 p p p r 3 3 r i r r 3 3 r 3 = 3 a p j j 9 = = t 5.n 0 - - 7 5.0 3 1 0 0 t 7 0 0 0 0 p V 5.y.w r 3 r 5 5 < ",
"y y p 0 p t.t.q.9.5.P N j p i 3 3 r s r 5 3 3 r 5 < r @.~ p 0 0 3 = w S P 0 - - - a 7 < - 1 t p 8 8 0 0 0 0 j 5.u.a 3 < 3 5 5 , ",
"5 y t 0 r 0.t.Z j 8 7 7 0 j d r r i r i i i r r w 5 s h.a.j 0 0 w < 8 t 9 } 8 7 - 1 1 w m t r t w 3 t 0 0 0 j O.u.} 2 7 w < 5 , ",
"5 p p 0 r Y 0.- $ $ $ $ - P d w i i r p d s i r r r g j.j.N 0 0 r 3 t ; - j R ....7 < 3 a d r 3 3 3 w p 0 0 a I t.7.9 0 w 5 5 < ",
"5 t w 0 p D t.; * * * * 8 n p t i p 0 p i i i i r s [ j.j.Z 0 0 p w M j ; w < = ; 3 3 < 3 3 3 < < 3 r r p 0 0 Z 0.4.7 w 5 5 < , ",
"5 5 < p p g t.S ; * * * P j j p p 0 0 t r i i i r i f.t.s.S p 0 p r r H V 3 3 < < 3 3 3 3 < < = = < 3 t p 0 0 j | 5.< 3 r 5 < , ",
", < 5 t p i g e.5.j p N n p j p 0 0 p r r r r i s i g.y.s.Y p 0 0 s i r 5 3 r 3 < < = < < < < < < < 3 r 0 0 0 0 N X.3 < 5 3 < , ",
"> , 5 i i s i g 5.E E M i p p 0 0 p r r r i s s s i j.s.=.2.&.a p s i i i r r 3 < < = = < < < < < < < 7 0 t 0 0 j I < < r 5 , > ",
": < 5 i s s s i r r r r i s P 0 0 p r d p p i s s i j.n.n.k.k.n.~ s s s s i r 5 < 3 < = & = < 3 3 3 < 7 r 3 8 0 j V d 5 5 < > % ",
": , < y i s s r r w 3 3 r s P 0 0 0 t S N p i i i g j.x.z ; e h.M.i r i s r r r 3 r 5 3 < < 3 < < < ; 3 3 3 w r 0 Z ..5 5 , > + ",
"+ : < y s s f s i 4 5 i r r S 0 p 0 p X.P p i r i / b.1 - - - 9 &.y 5 r s i r i r i i r 3 3 3 5 3 < = = < 3 5 r p C X.5 < , % + ",
"X + : < y y y y s y s s s r R j 8 p p I C p f s s ` ] - - - - 1 l./ s f f f f f f s s s y s s s r < 5 5 < < 5 r t p d 3 > : + o ",
". o + : < 5 5 5 i i y i s d 9 j ; r d q.j p s s s ! <.2.e - u 3.:.s s i i s s s s y s s s s s s s y y 5 5 < < y 5 w < , : + . . ",
"  . o + % > , , 6 y 5 y 5 d ; = 7 y s X.p t y 5 y y y l.k.z.M.&.y y y y y y y y y y y y y y y y y y 5 5 3 < 5 5 < < > % + o .   "
};
